M48
; DRILL file {KiCad 8.0.8} date 2025-04-09T22:21:54+0900
; FORMAT={-:-/ absolute / metric / decimal}
; #@! TF.CreationDate,2025-04-09T22:21:54+09:00
; #@! TF.GenerationSoftware,Kicad,Pcbnew,8.0.8
; #@! TF.FileFunction,NonPlated,1,2,NPTH
FMAT,2
METRIC
; #@! TA.AperFunction,NonPlated,NPTH,ComponentDrill
T1C1.000
; #@! TA.AperFunction,NonPlated,NPTH,ComponentDrill
T2C2.200
; #@! TA.AperFunction,NonPlated,NPTH,ComponentDrill
T3C3.000
; #@! TA.AperFunction,NonPlated,NPTH,ComponentDrill
T4C5.000
%
G90
G05
T1
X112.156Y-70.65
X112.156Y-89.7
X112.156Y-108.75
X112.156Y-127.8
X131.206Y-51.6
X131.206Y-70.65
X131.206Y-89.7
X131.206Y-108.75
X131.206Y-127.8
X150.256Y-51.6
X150.256Y-70.65
X150.256Y-89.7
X150.256Y-108.75
X150.256Y-127.8
X169.306Y-51.6
X169.306Y-70.65
X169.306Y-89.7
X169.306Y-108.75
X188.356Y-51.6
X188.356Y-70.65
X188.356Y-89.7
X188.356Y-108.75
X207.406Y-51.6
X207.406Y-70.65
X207.406Y-89.7
X207.406Y-108.75
X207.406Y-127.8
X226.456Y-51.6
X226.456Y-70.65
X226.456Y-89.7
X226.456Y-108.75
X226.456Y-127.8
T2
X100.012Y-91.678
X111.919Y-133.35
X135.731Y-53.578
X154.781Y-133.35
X173.831Y-53.578
X213.122Y-132.159
X214.312Y-53.578
X227.409Y-94.059
T3
X102.156Y-79.9
X102.156Y-98.95
X102.156Y-118.0
X102.156Y-137.05
X107.156Y-82.1
X107.156Y-101.15
X107.156Y-120.2
X107.156Y-139.25
X121.206Y-60.85
X121.206Y-79.9
X121.206Y-98.95
X121.206Y-118.0
X121.206Y-137.05
X126.206Y-63.05
X126.206Y-82.1
X126.206Y-101.15
X126.206Y-120.2
X126.206Y-139.25
X140.256Y-60.85
X140.256Y-79.9
X140.256Y-98.95
X140.256Y-118.0
X140.256Y-137.05
X145.256Y-63.05
X145.256Y-82.1
X145.256Y-101.15
X145.256Y-120.2
X145.256Y-139.25
X159.306Y-60.85
X159.306Y-79.9
X159.306Y-98.95
X159.306Y-118.0
X164.306Y-63.05
X164.306Y-82.1
X164.306Y-101.15
X164.306Y-120.2
X178.356Y-60.85
X178.356Y-79.9
X178.356Y-98.95
X178.356Y-118.0
X183.356Y-63.05
X183.356Y-82.1
X183.356Y-101.15
X183.356Y-120.2
X197.406Y-60.85
X197.406Y-79.9
X197.406Y-98.95
X197.406Y-118.0
X197.406Y-137.05
X202.406Y-63.05
X202.406Y-82.1
X202.406Y-101.15
X202.406Y-120.2
X202.406Y-139.25
X216.456Y-60.85
X216.456Y-79.9
X216.456Y-98.95
X216.456Y-118.0
X216.456Y-137.05
X221.456Y-63.05
X221.456Y-82.1
X221.456Y-101.15
X221.456Y-120.2
X221.456Y-139.25
T4
X107.156Y-76.2
X107.156Y-95.25
X107.156Y-114.3
X107.156Y-133.35
X126.206Y-57.15
X126.206Y-76.2
X126.206Y-95.25
X126.206Y-114.3
X126.206Y-133.35
X145.256Y-57.15
X145.256Y-76.2
X145.256Y-95.25
X145.256Y-114.3
X145.256Y-133.35
X164.306Y-57.15
X164.306Y-76.2
X164.306Y-95.25
X164.306Y-114.3
X183.356Y-57.15
X183.356Y-76.2
X183.356Y-95.25
X183.356Y-114.3
X202.406Y-57.15
X202.406Y-76.2
X202.406Y-95.25
X202.406Y-114.3
X202.406Y-133.35
X221.456Y-57.15
X221.456Y-76.2
X221.456Y-95.25
X221.456Y-114.3
X221.456Y-133.35
M30
