M48
; DRILL file {KiCad 8.0.8} date 2025-04-09T22:21:54+0900
; FORMAT={-:-/ absolute / metric / decimal}
; #@! TF.CreationDate,2025-04-09T22:21:54+09:00
; #@! TF.GenerationSoftware,Kicad,Pcbnew,8.0.8
; #@! TF.FileFunction,Plated,1,2,PTH
FMAT,2
METRIC
; #@! TA.AperFunction,Plated,PTH,ViaDrill
T1C0.300
; #@! TA.AperFunction,Plated,PTH,ComponentDrill
T2C0.500
; #@! TA.AperFunction,Plated,PTH,ComponentDrill
T3C0.813
; #@! TA.AperFunction,Plated,PTH,ComponentDrill
T4C1.000
; #@! TA.AperFunction,Plated,PTH,ComponentDrill
T5C1.500
%
G90
G05
T1
X97.523Y-129.693
X100.859Y-50.715
X102.342Y-65.924
X105.886Y-50.715
X106.386Y-63.229
X108.471Y-63.229
X108.471Y-67.408
X111.944Y-88.071
X113.67Y-122.602
X113.974Y-103.912
X115.0Y-81.453
X115.395Y-109.537
X116.486Y-66.159
X120.587Y-51.241
X124.365Y-67.988
X129.467Y-52.047
X130.557Y-91.197
X132.489Y-123.705
X132.71Y-103.019
X146.447Y-106.179
X146.83Y-91.197
X148.625Y-123.705
X148.806Y-129.001
X149.594Y-66.461
X150.827Y-100.931
X152.4Y-121.5
X152.704Y-73.139
X164.867Y-109.089
X165.497Y-70.046
X167.856Y-66.461
X167.856Y-73.139
X167.856Y-129.001
X170.031Y-141.132
X172.922Y-125.969
X173.137Y-67.378
X173.137Y-85.165
X174.351Y-91.094
X177.4Y-100.904
X184.547Y-89.097
X185.605Y-73.139
X186.906Y-85.165
X188.27Y-91.094
X189.492Y-105.446
X190.21Y-104.807
X196.854Y-82.566
X203.597Y-68.073
X205.345Y-91.094
X205.956Y-105.446
X207.111Y-91.056
X208.471Y-124.319
X208.732Y-67.126
X209.949Y-85.249
X212.831Y-103.912
X223.166Y-91.056
X223.723Y-106.392
X225.006Y-67.126
X225.006Y-122.602
T3
X98.346Y-48.175
X98.346Y-50.715
X98.346Y-53.255
X98.346Y-55.795
X98.346Y-58.335
X98.346Y-60.875
X98.346Y-63.415
X101.203Y-68.212
X101.203Y-75.832
X102.762Y-88.106
X102.762Y-107.156
X102.762Y-126.206
X103.953Y-69.056
X110.382Y-88.106
X110.382Y-107.156
X110.382Y-126.206
X111.572Y-69.056
X113.586Y-48.175
X113.586Y-50.715
X113.586Y-53.255
X113.586Y-55.795
X113.586Y-58.335
X113.586Y-60.875
X113.586Y-63.415
X119.062Y-49.184
X119.062Y-56.804
X119.062Y-68.212
X119.062Y-75.832
X119.062Y-87.262
X119.062Y-94.882
X119.062Y-106.312
X119.062Y-113.932
X119.062Y-125.362
X119.062Y-132.982
X121.79Y-69.056
X121.812Y-50.006
X121.812Y-88.106
X121.812Y-107.156
X121.812Y-126.206
X129.41Y-69.056
X129.432Y-50.006
X129.432Y-88.106
X129.432Y-107.156
X129.432Y-126.206
X140.862Y-50.006
X140.862Y-69.056
X140.862Y-88.106
X140.862Y-107.156
X140.862Y-126.206
X148.482Y-50.006
X148.482Y-69.056
X148.482Y-88.106
X148.482Y-107.156
X148.482Y-126.206
X159.544Y-126.552
X159.544Y-134.172
X159.912Y-50.006
X159.912Y-69.056
X159.912Y-88.106
X159.912Y-107.156
X167.532Y-50.006
X167.532Y-69.056
X167.532Y-88.106
X167.532Y-107.156
X176.213Y-106.312
X176.213Y-113.932
X178.962Y-50.006
X178.962Y-69.056
X178.962Y-88.106
X178.962Y-107.156
X186.582Y-50.006
X186.582Y-69.056
X186.582Y-88.106
X186.582Y-107.156
X188.119Y-126.552
X188.119Y-134.172
X195.262Y-87.262
X195.262Y-94.882
X198.012Y-50.006
X198.012Y-69.056
X198.012Y-88.106
X198.012Y-107.156
X198.012Y-126.206
X205.632Y-50.006
X205.632Y-69.056
X205.632Y-88.106
X205.632Y-107.156
X205.632Y-126.206
X209.55Y-128.934
X209.55Y-136.554
X214.312Y-68.212
X214.312Y-75.832
X217.04Y-88.106
X217.062Y-50.006
X217.062Y-69.056
X217.062Y-107.156
X217.062Y-126.206
X224.66Y-88.106
X224.682Y-50.006
X224.682Y-69.056
X224.682Y-107.156
X224.682Y-126.206
X228.6Y-128.934
X228.6Y-136.554
T4
X101.521Y-53.573
X101.521Y-55.478
X109.801Y-65.107
X111.681Y-65.107
X166.581Y-130.85
X166.581Y-133.35
X166.581Y-135.85
X181.081Y-130.85
X181.081Y-135.85
T2
G00X97.896Y-68.53
M15
G01X97.896Y-68.83
M16
G05
G00X97.896Y-71.03
M15
G01X97.896Y-71.33
M16
G05
G00X97.896Y-73.53
M15
G01X97.896Y-73.83
M16
G05
T5
G00X173.431Y-127.75
M15
G01X174.731Y-127.75
M16
G05
G00X173.431Y-138.95
M15
G01X174.731Y-138.95
M16
G05
M30
