  0
SECTION
  2
HEADER
  9
$ANGBASE
  50
0.0
  9
$ANGDIR
  70
1
  9
$MEASUREMENT
  70
0
  0
ENDSEC
  0
SECTION
  2
TABLES
  0
TABLE
  2
LTYPE
  70
4
  0
LTYPE
  5
40F
  2
CONTINUOUS
  70
0
  3
Solid line
  72
65
  73
0
  40
0.0
  0
LTYPE
  5
410
  2
DASHDOT
 70
0
  3
Dash Dot ____ _ ____ _
 72
65
 73
4
 40
2.0
 49
1.25
 49
-0.25
 49
0.25
 49
-0.25
  0
LTYPE
  5
411
  2
DASHED
 70
0
  3
Dashed __ __ __ __ __
 72
65
 73
2
 40
0.75
 49
0.5
 49
-0.25
  0
LTYPE
  5
43B
  2
DOTTED
 70
0
  3
Dotted .  .  .  .
 72
65
 73
2
 40
0.2
 49
0.0
 49
-0.2
  0
ENDTAB
  0
TABLE
  2
STYLE
  70
4
  0
STYLE
  2
KICAD
  70
0
  40
0
  41
1
  42
1
  50
0
  71
0
  3
isocp.shx
  0
STYLE
  2
KICADB
  70
0
  40
0
  41
1
  42
1
  50
0
  71
0
  3
isocp.shx
  0
STYLE
  2
KICADI
  70
0
  40
0
  41
1
  42
1
  50
15
  71
0
  3
isocp.shx
  0
STYLE
  2
KICADBI
  70
0
  40
0
  41
1
  42
1
  50
15
  71
0
  3
isocp.shx
  0
ENDTAB
  0
TABLE
  2
LAYER
  70
1
  0
LAYER
  2
BLACK
  70
0
  62
7
  6
CONTINUOUS
  0
ENDTAB
  0
ENDSEC
  0
SECTION
  2
ENTITIES
0
LINE
8
BLACK
6
CONTINUOUS
10
4.8718851181102361
20
-4.0320449212598426
11
4.8729495275590553
21
-4.0324858267716532
0
LINE
8
BLACK
6
CONTINUOUS
10
4.8729495275590553
20
-4.0324858267716532
11
4.8737641732283468
21
-4.0333004724409447
0
LINE
8
BLACK
6
CONTINUOUS
10
4.8737641732283468
20
-4.0333004724409447
11
4.8742050787401574
21
-4.0343648818897639
0
LINE
8
BLACK
6
CONTINUOUS
10
4.8742050787401574
20
-4.0343648818897639
11
4.8742618110236222
21
-4.0349409448818898
0
LINE
8
BLACK
6
CONTINUOUS
10
4.8742618110236222
20
-4.0349409448818898
11
4.8742618110236222
21
-4.5900590551181102
0
LINE
8
BLACK
6
CONTINUOUS
10
4.8742618110236222
20
-4.5900590551181102
11
4.8742050787401574
21
-4.5906351181102361
0
LINE
8
BLACK
6
CONTINUOUS
10
4.8742050787401574
20
-4.5906351181102361
11
4.8737641732283468
21
-4.5916995275590553
0
LINE
8
BLACK
6
CONTINUOUS
10
4.8737641732283468
20
-4.5916995275590553
11
4.8729495275590553
21
-4.5925141732283468
0
LINE
8
BLACK
6
CONTINUOUS
10
4.8729495275590553
20
-4.5925141732283468
11
4.8718851181102361
21
-4.5929550787401574
0
LINE
8
BLACK
6
CONTINUOUS
10
4.8718851181102361
20
-4.5929550787401574
11
4.8713090551181102
21
-4.5930118110236222
0
LINE
8
BLACK
6
CONTINUOUS
10
4.8713090551181102
20
-4.5930118110236222
11
4.3161909448818898
21
-4.5930118110236222
0
LINE
8
BLACK
6
CONTINUOUS
10
4.3161909448818898
20
-4.5930118110236222
11
4.3156148818897639
21
-4.5929550787401574
0
LINE
8
BLACK
6
CONTINUOUS
10
4.3156148818897639
20
-4.5929550787401574
11
4.3145504724409447
21
-4.5925141732283468
0
LINE
8
BLACK
6
CONTINUOUS
10
4.3145504724409447
20
-4.5925141732283468
11
4.3137358267716532
21
-4.5916995275590553
0
LINE
8
BLACK
6
CONTINUOUS
10
4.3137358267716532
20
-4.5916995275590553
11
4.3132949212598426
21
-4.5906351181102361
0
LINE
8
BLACK
6
CONTINUOUS
10
4.3132949212598426
20
-4.5906351181102361
11
4.3132381889763778
21
-4.5900590551181102
0
LINE
8
BLACK
6
CONTINUOUS
10
4.3132381889763778
20
-4.5900590551181102
11
4.3132381889763778
21
-4.0349409448818898
0
LINE
8
BLACK
6
CONTINUOUS
10
4.3132381889763778
20
-4.0349409448818898
11
4.3132949212598426
21
-4.0343648818897639
0
LINE
8
BLACK
6
CONTINUOUS
10
4.3132949212598426
20
-4.0343648818897639
11
4.3137358267716532
21
-4.0333004724409447
0
LINE
8
BLACK
6
CONTINUOUS
10
4.3137358267716532
20
-4.0333004724409447
11
4.3145504724409447
21
-4.0324858267716532
0
LINE
8
BLACK
6
CONTINUOUS
10
4.3145504724409447
20
-4.0324858267716532
11
4.3156148818897639
21
-4.0320449212598426
0
LINE
8
BLACK
6
CONTINUOUS
10
4.3156148818897639
20
-4.0320449212598426
11
4.3161909448818898
21
-4.0319881889763778
0
LINE
8
BLACK
6
CONTINUOUS
10
4.3161909448818898
20
-4.0319881889763778
11
4.8713090551181102
21
-4.0319881889763778
0
LINE
8
BLACK
6
CONTINUOUS
10
4.8713090551181102
20
-4.0319881889763778
11
4.8718851181102361
21
-4.0320449212598426
0
LINE
8
BLACK
6
CONTINUOUS
10
4.3191437007874018
20
-4.0378937007874018
11
4.3191437007874018
21
-4.5871062992125982
0
LINE
8
BLACK
6
CONTINUOUS
10
4.3191437007874018
20
-4.5871062992125982
11
4.8683562992125982
21
-4.5871062992125982
0
LINE
8
BLACK
6
CONTINUOUS
10
4.8683562992125982
20
-4.5871062992125982
11
4.8683562992125982
21
-4.0378937007874018
0
LINE
8
BLACK
6
CONTINUOUS
10
4.8683562992125982
20
-4.0378937007874018
11
4.3191437007874018
21
-4.0378937007874018
0
LINE
8
BLACK
6
CONTINUOUS
10
7.8718851181102361
20
-4.0320449212598426
11
7.8729495275590553
21
-4.0324858267716532
0
LINE
8
BLACK
6
CONTINUOUS
10
7.8729495275590553
20
-4.0324858267716532
11
7.8737641732283459
21
-4.0333004724409447
0
LINE
8
BLACK
6
CONTINUOUS
10
7.8737641732283459
20
-4.0333004724409447
11
7.8742050787401574
21
-4.0343648818897639
0
LINE
8
BLACK
6
CONTINUOUS
10
7.8742050787401574
20
-4.0343648818897639
11
7.8742618110236222
21
-4.0349409448818898
0
LINE
8
BLACK
6
CONTINUOUS
10
7.8742618110236222
20
-4.0349409448818898
11
7.8742618110236222
21
-4.5900590551181102
0
LINE
8
BLACK
6
CONTINUOUS
10
7.8742618110236222
20
-4.5900590551181102
11
7.8742050787401574
21
-4.5906351181102361
0
LINE
8
BLACK
6
CONTINUOUS
10
7.8742050787401574
20
-4.5906351181102361
11
7.8737641732283459
21
-4.5916995275590553
0
LINE
8
BLACK
6
CONTINUOUS
10
7.8737641732283459
20
-4.5916995275590553
11
7.8729495275590553
21
-4.5925141732283468
0
LINE
8
BLACK
6
CONTINUOUS
10
7.8729495275590553
20
-4.5925141732283468
11
7.8718851181102361
21
-4.5929550787401574
0
LINE
8
BLACK
6
CONTINUOUS
10
7.8718851181102361
20
-4.5929550787401574
11
7.8713090551181102
21
-4.5930118110236222
0
LINE
8
BLACK
6
CONTINUOUS
10
7.8713090551181102
20
-4.5930118110236222
11
7.3161909448818898
21
-4.5930118110236222
0
LINE
8
BLACK
6
CONTINUOUS
10
7.3161909448818898
20
-4.5930118110236222
11
7.3156148818897639
21
-4.5929550787401574
0
LINE
8
BLACK
6
CONTINUOUS
10
7.3156148818897639
20
-4.5929550787401574
11
7.3145504724409447
21
-4.5925141732283468
0
LINE
8
BLACK
6
CONTINUOUS
10
7.3145504724409447
20
-4.5925141732283468
11
7.3137358267716532
21
-4.5916995275590553
0
LINE
8
BLACK
6
CONTINUOUS
10
7.3137358267716532
20
-4.5916995275590553
11
7.3132949212598426
21
-4.5906351181102361
0
LINE
8
BLACK
6
CONTINUOUS
10
7.3132949212598426
20
-4.5906351181102361
11
7.3132381889763778
21
-4.5900590551181102
0
LINE
8
BLACK
6
CONTINUOUS
10
7.3132381889763778
20
-4.5900590551181102
11
7.3132381889763778
21
-4.0349409448818898
0
LINE
8
BLACK
6
CONTINUOUS
10
7.3132381889763778
20
-4.0349409448818898
11
7.3132949212598426
21
-4.0343648818897639
0
LINE
8
BLACK
6
CONTINUOUS
10
7.3132949212598426
20
-4.0343648818897639
11
7.3137358267716532
21
-4.0333004724409447
0
LINE
8
BLACK
6
CONTINUOUS
10
7.3137358267716532
20
-4.0333004724409447
11
7.3145504724409447
21
-4.0324858267716532
0
LINE
8
BLACK
6
CONTINUOUS
10
7.3145504724409447
20
-4.0324858267716532
11
7.3156148818897639
21
-4.0320449212598426
0
LINE
8
BLACK
6
CONTINUOUS
10
7.3156148818897639
20
-4.0320449212598426
11
7.3161909448818898
21
-4.0319881889763778
0
LINE
8
BLACK
6
CONTINUOUS
10
7.3161909448818898
20
-4.0319881889763778
11
7.8713090551181102
21
-4.0319881889763778
0
LINE
8
BLACK
6
CONTINUOUS
10
7.8713090551181102
20
-4.0319881889763778
11
7.8718851181102361
21
-4.0320449212598426
0
LINE
8
BLACK
6
CONTINUOUS
10
7.3191437007874018
20
-4.0378937007874018
11
7.3191437007874018
21
-4.5871062992125982
0
LINE
8
BLACK
6
CONTINUOUS
10
7.3191437007874018
20
-4.5871062992125982
11
7.8683562992125982
21
-4.5871062992125982
0
LINE
8
BLACK
6
CONTINUOUS
10
7.8683562992125982
20
-4.5871062992125982
11
7.8683562992125982
21
-4.0378937007874018
0
LINE
8
BLACK
6
CONTINUOUS
10
7.8683562992125982
20
-4.0378937007874018
11
7.3191437007874018
21
-4.0378937007874018
0
LINE
8
BLACK
6
CONTINUOUS
10
8.6218851181102352
20
-4.0320449212598426
11
8.6229495275590544
21
-4.0324858267716532
0
LINE
8
BLACK
6
CONTINUOUS
10
8.6229495275590544
20
-4.0324858267716532
11
8.6237641732283468
21
-4.0333004724409447
0
LINE
8
BLACK
6
CONTINUOUS
10
8.6237641732283468
20
-4.0333004724409447
11
8.6242050787401574
21
-4.0343648818897639
0
LINE
8
BLACK
6
CONTINUOUS
10
8.6242050787401574
20
-4.0343648818897639
11
8.6242618110236222
21
-4.0349409448818898
0
LINE
8
BLACK
6
CONTINUOUS
10
8.6242618110236222
20
-4.0349409448818898
11
8.6242618110236222
21
-4.5900590551181102
0
LINE
8
BLACK
6
CONTINUOUS
10
8.6242618110236222
20
-4.5900590551181102
11
8.6242050787401574
21
-4.5906351181102361
0
LINE
8
BLACK
6
CONTINUOUS
10
8.6242050787401574
20
-4.5906351181102361
11
8.6237641732283468
21
-4.5916995275590553
0
LINE
8
BLACK
6
CONTINUOUS
10
8.6237641732283468
20
-4.5916995275590553
11
8.6229495275590544
21
-4.5925141732283468
0
LINE
8
BLACK
6
CONTINUOUS
10
8.6229495275590544
20
-4.5925141732283468
11
8.6218851181102352
21
-4.5929550787401574
0
LINE
8
BLACK
6
CONTINUOUS
10
8.6218851181102352
20
-4.5929550787401574
11
8.6213090551181093
21
-4.5930118110236222
0
LINE
8
BLACK
6
CONTINUOUS
10
8.6213090551181093
20
-4.5930118110236222
11
8.0661909448818889
21
-4.5930118110236222
0
LINE
8
BLACK
6
CONTINUOUS
10
8.0661909448818889
20
-4.5930118110236222
11
8.0656148818897631
21
-4.5929550787401574
0
LINE
8
BLACK
6
CONTINUOUS
10
8.0656148818897631
20
-4.5929550787401574
11
8.0645504724409456
21
-4.5925141732283468
0
LINE
8
BLACK
6
CONTINUOUS
10
8.0645504724409456
20
-4.5925141732283468
11
8.0637358267716532
21
-4.5916995275590553
0
LINE
8
BLACK
6
CONTINUOUS
10
8.0637358267716532
20
-4.5916995275590553
11
8.0632949212598426
21
-4.5906351181102361
0
LINE
8
BLACK
6
CONTINUOUS
10
8.0632949212598426
20
-4.5906351181102361
11
8.0632381889763778
21
-4.5900590551181102
0
LINE
8
BLACK
6
CONTINUOUS
10
8.0632381889763778
20
-4.5900590551181102
11
8.0632381889763778
21
-4.0349409448818898
0
LINE
8
BLACK
6
CONTINUOUS
10
8.0632381889763778
20
-4.0349409448818898
11
8.0632949212598426
21
-4.0343648818897639
0
LINE
8
BLACK
6
CONTINUOUS
10
8.0632949212598426
20
-4.0343648818897639
11
8.0637358267716532
21
-4.0333004724409447
0
LINE
8
BLACK
6
CONTINUOUS
10
8.0637358267716532
20
-4.0333004724409447
11
8.0645504724409456
21
-4.0324858267716532
0
LINE
8
BLACK
6
CONTINUOUS
10
8.0645504724409456
20
-4.0324858267716532
11
8.0656148818897631
21
-4.0320449212598426
0
LINE
8
BLACK
6
CONTINUOUS
10
8.0656148818897631
20
-4.0320449212598426
11
8.0661909448818889
21
-4.0319881889763778
0
LINE
8
BLACK
6
CONTINUOUS
10
8.0661909448818889
20
-4.0319881889763778
11
8.6213090551181093
21
-4.0319881889763778
0
LINE
8
BLACK
6
CONTINUOUS
10
8.6213090551181093
20
-4.0319881889763778
11
8.6218851181102352
21
-4.0320449212598426
0
LINE
8
BLACK
6
CONTINUOUS
10
8.0691437007874018
20
-4.0378937007874018
11
8.0691437007874018
21
-4.5871062992125982
0
LINE
8
BLACK
6
CONTINUOUS
10
8.0691437007874018
20
-4.5871062992125982
11
8.6183562992125982
21
-4.5871062992125982
0
LINE
8
BLACK
6
CONTINUOUS
10
8.6183562992125982
20
-4.5871062992125982
11
8.6183562992125982
21
-4.0378937007874018
0
LINE
8
BLACK
6
CONTINUOUS
10
8.6183562992125982
20
-4.0378937007874018
11
8.0691437007874018
21
-4.0378937007874018
0
LINE
8
BLACK
6
CONTINUOUS
10
9.3718851181102352
20
-4.0320449212598426
11
9.3729495275590544
21
-4.0324858267716532
0
LINE
8
BLACK
6
CONTINUOUS
10
9.3729495275590544
20
-4.0324858267716532
11
9.3737641732283468
21
-4.0333004724409447
0
LINE
8
BLACK
6
CONTINUOUS
10
9.3737641732283468
20
-4.0333004724409447
11
9.3742050787401574
21
-4.0343648818897639
0
LINE
8
BLACK
6
CONTINUOUS
10
9.3742050787401574
20
-4.0343648818897639
11
9.3742618110236222
21
-4.0349409448818898
0
LINE
8
BLACK
6
CONTINUOUS
10
9.3742618110236222
20
-4.0349409448818898
11
9.3742618110236222
21
-4.5900590551181102
0
LINE
8
BLACK
6
CONTINUOUS
10
9.3742618110236222
20
-4.5900590551181102
11
9.3742050787401574
21
-4.5906351181102361
0
LINE
8
BLACK
6
CONTINUOUS
10
9.3742050787401574
20
-4.5906351181102361
11
9.3737641732283468
21
-4.5916995275590553
0
LINE
8
BLACK
6
CONTINUOUS
10
9.3737641732283468
20
-4.5916995275590553
11
9.3729495275590544
21
-4.5925141732283468
0
LINE
8
BLACK
6
CONTINUOUS
10
9.3729495275590544
20
-4.5925141732283468
11
9.3718851181102352
21
-4.5929550787401574
0
LINE
8
BLACK
6
CONTINUOUS
10
9.3718851181102352
20
-4.5929550787401574
11
9.3713090551181093
21
-4.5930118110236222
0
LINE
8
BLACK
6
CONTINUOUS
10
9.3713090551181093
20
-4.5930118110236222
11
8.8161909448818889
21
-4.5930118110236222
0
LINE
8
BLACK
6
CONTINUOUS
10
8.8161909448818889
20
-4.5930118110236222
11
8.8156148818897631
21
-4.5929550787401574
0
LINE
8
BLACK
6
CONTINUOUS
10
8.8156148818897631
20
-4.5929550787401574
11
8.8145504724409438
21
-4.5925141732283468
0
LINE
8
BLACK
6
CONTINUOUS
10
8.8145504724409438
20
-4.5925141732283468
11
8.8137358267716532
21
-4.5916995275590553
0
LINE
8
BLACK
6
CONTINUOUS
10
8.8137358267716532
20
-4.5916995275590553
11
8.8132949212598426
21
-4.5906351181102361
0
LINE
8
BLACK
6
CONTINUOUS
10
8.8132949212598426
20
-4.5906351181102361
11
8.8132381889763778
21
-4.5900590551181102
0
LINE
8
BLACK
6
CONTINUOUS
10
8.8132381889763778
20
-4.5900590551181102
11
8.8132381889763778
21
-4.0349409448818898
0
LINE
8
BLACK
6
CONTINUOUS
10
8.8132381889763778
20
-4.0349409448818898
11
8.8132949212598426
21
-4.0343648818897639
0
LINE
8
BLACK
6
CONTINUOUS
10
8.8132949212598426
20
-4.0343648818897639
11
8.8137358267716532
21
-4.0333004724409447
0
LINE
8
BLACK
6
CONTINUOUS
10
8.8137358267716532
20
-4.0333004724409447
11
8.8145504724409438
21
-4.0324858267716532
0
LINE
8
BLACK
6
CONTINUOUS
10
8.8145504724409438
20
-4.0324858267716532
11
8.8156148818897631
21
-4.0320449212598426
0
LINE
8
BLACK
6
CONTINUOUS
10
8.8156148818897631
20
-4.0320449212598426
11
8.8161909448818889
21
-4.0319881889763778
0
LINE
8
BLACK
6
CONTINUOUS
10
8.8161909448818889
20
-4.0319881889763778
11
9.3713090551181093
21
-4.0319881889763778
0
LINE
8
BLACK
6
CONTINUOUS
10
9.3713090551181093
20
-4.0319881889763778
11
9.3718851181102352
21
-4.0320449212598426
0
LINE
8
BLACK
6
CONTINUOUS
10
8.8191437007874018
20
-4.0378937007874018
11
8.8191437007874018
21
-4.5871062992125982
0
LINE
8
BLACK
6
CONTINUOUS
10
8.8191437007874018
20
-4.5871062992125982
11
9.3683562992125982
21
-4.5871062992125982
0
LINE
8
BLACK
6
CONTINUOUS
10
9.3683562992125982
20
-4.5871062992125982
11
9.3683562992125982
21
-4.0378937007874018
0
LINE
8
BLACK
6
CONTINUOUS
10
9.3683562992125982
20
-4.0378937007874018
11
8.8191437007874018
21
-4.0378937007874018
0
LINE
8
BLACK
6
CONTINUOUS
10
4.8718851181102361
20
-3.2820449212598426
11
4.8729495275590553
21
-3.2824858267716537
0
LINE
8
BLACK
6
CONTINUOUS
10
4.8729495275590553
20
-3.2824858267716537
11
4.8737641732283468
21
-3.2833004724409447
0
LINE
8
BLACK
6
CONTINUOUS
10
4.8737641732283468
20
-3.2833004724409447
11
4.8742050787401574
21
-3.2843648818897635
0
LINE
8
BLACK
6
CONTINUOUS
10
4.8742050787401574
20
-3.2843648818897635
11
4.8742618110236222
21
-3.2849409448818898
0
LINE
8
BLACK
6
CONTINUOUS
10
4.8742618110236222
20
-3.2849409448818898
11
4.8742618110236222
21
-3.8400590551181102
0
LINE
8
BLACK
6
CONTINUOUS
10
4.8742618110236222
20
-3.8400590551181102
11
4.8742050787401574
21
-3.8406351181102361
0
LINE
8
BLACK
6
CONTINUOUS
10
4.8742050787401574
20
-3.8406351181102361
11
4.8737641732283468
21
-3.8416995275590549
0
LINE
8
BLACK
6
CONTINUOUS
10
4.8737641732283468
20
-3.8416995275590549
11
4.8729495275590553
21
-3.8425141732283463
0
LINE
8
BLACK
6
CONTINUOUS
10
4.8729495275590553
20
-3.8425141732283463
11
4.8718851181102361
21
-3.8429550787401574
0
LINE
8
BLACK
6
CONTINUOUS
10
4.8718851181102361
20
-3.8429550787401574
11
4.8713090551181102
21
-3.8430118110236218
0
LINE
8
BLACK
6
CONTINUOUS
10
4.8713090551181102
20
-3.8430118110236218
11
4.3161909448818898
21
-3.8430118110236218
0
LINE
8
BLACK
6
CONTINUOUS
10
4.3161909448818898
20
-3.8430118110236218
11
4.3156148818897639
21
-3.8429550787401574
0
LINE
8
BLACK
6
CONTINUOUS
10
4.3156148818897639
20
-3.8429550787401574
11
4.3145504724409447
21
-3.8425141732283463
0
LINE
8
BLACK
6
CONTINUOUS
10
4.3145504724409447
20
-3.8425141732283463
11
4.3137358267716532
21
-3.8416995275590549
0
LINE
8
BLACK
6
CONTINUOUS
10
4.3137358267716532
20
-3.8416995275590549
11
4.3132949212598426
21
-3.8406351181102361
0
LINE
8
BLACK
6
CONTINUOUS
10
4.3132949212598426
20
-3.8406351181102361
11
4.3132381889763778
21
-3.8400590551181102
0
LINE
8
BLACK
6
CONTINUOUS
10
4.3132381889763778
20
-3.8400590551181102
11
4.3132381889763778
21
-3.2849409448818898
0
LINE
8
BLACK
6
CONTINUOUS
10
4.3132381889763778
20
-3.2849409448818898
11
4.3132949212598426
21
-3.2843648818897635
0
LINE
8
BLACK
6
CONTINUOUS
10
4.3132949212598426
20
-3.2843648818897635
11
4.3137358267716532
21
-3.2833004724409447
0
LINE
8
BLACK
6
CONTINUOUS
10
4.3137358267716532
20
-3.2833004724409447
11
4.3145504724409447
21
-3.2824858267716537
0
LINE
8
BLACK
6
CONTINUOUS
10
4.3145504724409447
20
-3.2824858267716537
11
4.3156148818897639
21
-3.2820449212598426
0
LINE
8
BLACK
6
CONTINUOUS
10
4.3156148818897639
20
-3.2820449212598426
11
4.3161909448818898
21
-3.2819881889763778
0
LINE
8
BLACK
6
CONTINUOUS
10
4.3161909448818898
20
-3.2819881889763778
11
4.8713090551181102
21
-3.2819881889763778
0
LINE
8
BLACK
6
CONTINUOUS
10
4.8713090551181102
20
-3.2819881889763778
11
4.8718851181102361
21
-3.2820449212598426
0
LINE
8
BLACK
6
CONTINUOUS
10
4.3191437007874018
20
-3.2878937007874014
11
4.3191437007874018
21
-3.8371062992125982
0
LINE
8
BLACK
6
CONTINUOUS
10
4.3191437007874018
20
-3.8371062992125982
11
4.8683562992125982
21
-3.8371062992125982
0
LINE
8
BLACK
6
CONTINUOUS
10
4.8683562992125982
20
-3.8371062992125982
11
4.8683562992125982
21
-3.2878937007874014
0
LINE
8
BLACK
6
CONTINUOUS
10
4.8683562992125982
20
-3.2878937007874014
11
4.3191437007874018
21
-3.2878937007874014
0
LINE
8
BLACK
6
CONTINUOUS
10
5.6218851181102361
20
-3.2820449212598426
11
5.6229495275590553
21
-3.2824858267716537
0
LINE
8
BLACK
6
CONTINUOUS
10
5.6229495275590553
20
-3.2824858267716537
11
5.6237641732283468
21
-3.2833004724409447
0
LINE
8
BLACK
6
CONTINUOUS
10
5.6237641732283468
20
-3.2833004724409447
11
5.6242050787401574
21
-3.2843648818897635
0
LINE
8
BLACK
6
CONTINUOUS
10
5.6242050787401574
20
-3.2843648818897635
11
5.6242618110236222
21
-3.2849409448818898
0
LINE
8
BLACK
6
CONTINUOUS
10
5.6242618110236222
20
-3.2849409448818898
11
5.6242618110236222
21
-3.8400590551181102
0
LINE
8
BLACK
6
CONTINUOUS
10
5.6242618110236222
20
-3.8400590551181102
11
5.6242050787401574
21
-3.8406351181102361
0
LINE
8
BLACK
6
CONTINUOUS
10
5.6242050787401574
20
-3.8406351181102361
11
5.6237641732283468
21
-3.8416995275590549
0
LINE
8
BLACK
6
CONTINUOUS
10
5.6237641732283468
20
-3.8416995275590549
11
5.6229495275590553
21
-3.8425141732283463
0
LINE
8
BLACK
6
CONTINUOUS
10
5.6229495275590553
20
-3.8425141732283463
11
5.6218851181102361
21
-3.8429550787401574
0
LINE
8
BLACK
6
CONTINUOUS
10
5.6218851181102361
20
-3.8429550787401574
11
5.6213090551181102
21
-3.8430118110236218
0
LINE
8
BLACK
6
CONTINUOUS
10
5.6213090551181102
20
-3.8430118110236218
11
5.0661909448818898
21
-3.8430118110236218
0
LINE
8
BLACK
6
CONTINUOUS
10
5.0661909448818898
20
-3.8430118110236218
11
5.0656148818897639
21
-3.8429550787401574
0
LINE
8
BLACK
6
CONTINUOUS
10
5.0656148818897639
20
-3.8429550787401574
11
5.0645504724409447
21
-3.8425141732283463
0
LINE
8
BLACK
6
CONTINUOUS
10
5.0645504724409447
20
-3.8425141732283463
11
5.0637358267716532
21
-3.8416995275590549
0
LINE
8
BLACK
6
CONTINUOUS
10
5.0637358267716532
20
-3.8416995275590549
11
5.0632949212598426
21
-3.8406351181102361
0
LINE
8
BLACK
6
CONTINUOUS
10
5.0632949212598426
20
-3.8406351181102361
11
5.0632381889763778
21
-3.8400590551181102
0
LINE
8
BLACK
6
CONTINUOUS
10
5.0632381889763778
20
-3.8400590551181102
11
5.0632381889763778
21
-3.2849409448818898
0
LINE
8
BLACK
6
CONTINUOUS
10
5.0632381889763778
20
-3.2849409448818898
11
5.0632949212598426
21
-3.2843648818897635
0
LINE
8
BLACK
6
CONTINUOUS
10
5.0632949212598426
20
-3.2843648818897635
11
5.0637358267716532
21
-3.2833004724409447
0
LINE
8
BLACK
6
CONTINUOUS
10
5.0637358267716532
20
-3.2833004724409447
11
5.0645504724409447
21
-3.2824858267716537
0
LINE
8
BLACK
6
CONTINUOUS
10
5.0645504724409447
20
-3.2824858267716537
11
5.0656148818897639
21
-3.2820449212598426
0
LINE
8
BLACK
6
CONTINUOUS
10
5.0656148818897639
20
-3.2820449212598426
11
5.0661909448818898
21
-3.2819881889763778
0
LINE
8
BLACK
6
CONTINUOUS
10
5.0661909448818898
20
-3.2819881889763778
11
5.6213090551181102
21
-3.2819881889763778
0
LINE
8
BLACK
6
CONTINUOUS
10
5.6213090551181102
20
-3.2819881889763778
11
5.6218851181102361
21
-3.2820449212598426
0
LINE
8
BLACK
6
CONTINUOUS
10
5.0691437007874018
20
-3.2878937007874014
11
5.0691437007874018
21
-3.8371062992125982
0
LINE
8
BLACK
6
CONTINUOUS
10
5.0691437007874018
20
-3.8371062992125982
11
5.6183562992125982
21
-3.8371062992125982
0
LINE
8
BLACK
6
CONTINUOUS
10
5.6183562992125982
20
-3.8371062992125982
11
5.6183562992125982
21
-3.2878937007874014
0
LINE
8
BLACK
6
CONTINUOUS
10
5.6183562992125982
20
-3.2878937007874014
11
5.0691437007874018
21
-3.2878937007874014
0
LINE
8
BLACK
6
CONTINUOUS
10
6.3718851181102361
20
-3.2820449212598426
11
6.3729495275590553
21
-3.2824858267716537
0
LINE
8
BLACK
6
CONTINUOUS
10
6.3729495275590553
20
-3.2824858267716537
11
6.3737641732283459
21
-3.2833004724409447
0
LINE
8
BLACK
6
CONTINUOUS
10
6.3737641732283459
20
-3.2833004724409447
11
6.3742050787401574
21
-3.2843648818897635
0
LINE
8
BLACK
6
CONTINUOUS
10
6.3742050787401574
20
-3.2843648818897635
11
6.3742618110236222
21
-3.2849409448818898
0
LINE
8
BLACK
6
CONTINUOUS
10
6.3742618110236222
20
-3.2849409448818898
11
6.3742618110236222
21
-3.8400590551181102
0
LINE
8
BLACK
6
CONTINUOUS
10
6.3742618110236222
20
-3.8400590551181102
11
6.3742050787401574
21
-3.8406351181102361
0
LINE
8
BLACK
6
CONTINUOUS
10
6.3742050787401574
20
-3.8406351181102361
11
6.3737641732283459
21
-3.8416995275590549
0
LINE
8
BLACK
6
CONTINUOUS
10
6.3737641732283459
20
-3.8416995275590549
11
6.3729495275590553
21
-3.8425141732283463
0
LINE
8
BLACK
6
CONTINUOUS
10
6.3729495275590553
20
-3.8425141732283463
11
6.3718851181102361
21
-3.8429550787401574
0
LINE
8
BLACK
6
CONTINUOUS
10
6.3718851181102361
20
-3.8429550787401574
11
6.3713090551181102
21
-3.8430118110236218
0
LINE
8
BLACK
6
CONTINUOUS
10
6.3713090551181102
20
-3.8430118110236218
11
5.8161909448818898
21
-3.8430118110236218
0
LINE
8
BLACK
6
CONTINUOUS
10
5.8161909448818898
20
-3.8430118110236218
11
5.8156148818897639
21
-3.8429550787401574
0
LINE
8
BLACK
6
CONTINUOUS
10
5.8156148818897639
20
-3.8429550787401574
11
5.8145504724409447
21
-3.8425141732283463
0
LINE
8
BLACK
6
CONTINUOUS
10
5.8145504724409447
20
-3.8425141732283463
11
5.8137358267716532
21
-3.8416995275590549
0
LINE
8
BLACK
6
CONTINUOUS
10
5.8137358267716532
20
-3.8416995275590549
11
5.8132949212598426
21
-3.8406351181102361
0
LINE
8
BLACK
6
CONTINUOUS
10
5.8132949212598426
20
-3.8406351181102361
11
5.8132381889763778
21
-3.8400590551181102
0
LINE
8
BLACK
6
CONTINUOUS
10
5.8132381889763778
20
-3.8400590551181102
11
5.8132381889763778
21
-3.2849409448818898
0
LINE
8
BLACK
6
CONTINUOUS
10
5.8132381889763778
20
-3.2849409448818898
11
5.8132949212598426
21
-3.2843648818897635
0
LINE
8
BLACK
6
CONTINUOUS
10
5.8132949212598426
20
-3.2843648818897635
11
5.8137358267716532
21
-3.2833004724409447
0
LINE
8
BLACK
6
CONTINUOUS
10
5.8137358267716532
20
-3.2833004724409447
11
5.8145504724409447
21
-3.2824858267716537
0
LINE
8
BLACK
6
CONTINUOUS
10
5.8145504724409447
20
-3.2824858267716537
11
5.8156148818897639
21
-3.2820449212598426
0
LINE
8
BLACK
6
CONTINUOUS
10
5.8156148818897639
20
-3.2820449212598426
11
5.8161909448818898
21
-3.2819881889763778
0
LINE
8
BLACK
6
CONTINUOUS
10
5.8161909448818898
20
-3.2819881889763778
11
6.3713090551181102
21
-3.2819881889763778
0
LINE
8
BLACK
6
CONTINUOUS
10
6.3713090551181102
20
-3.2819881889763778
11
6.3718851181102361
21
-3.2820449212598426
0
LINE
8
BLACK
6
CONTINUOUS
10
5.8191437007874018
20
-3.2878937007874014
11
5.8191437007874018
21
-3.8371062992125982
0
LINE
8
BLACK
6
CONTINUOUS
10
5.8191437007874018
20
-3.8371062992125982
11
6.3683562992125982
21
-3.8371062992125982
0
LINE
8
BLACK
6
CONTINUOUS
10
6.3683562992125982
20
-3.8371062992125982
11
6.3683562992125982
21
-3.2878937007874014
0
LINE
8
BLACK
6
CONTINUOUS
10
6.3683562992125982
20
-3.2878937007874014
11
5.8191437007874018
21
-3.2878937007874014
0
LINE
8
BLACK
6
CONTINUOUS
10
7.1218851181102361
20
-3.2820449212598426
11
7.1229495275590553
21
-3.2824858267716537
0
LINE
8
BLACK
6
CONTINUOUS
10
7.1229495275590553
20
-3.2824858267716537
11
7.1237641732283459
21
-3.2833004724409447
0
LINE
8
BLACK
6
CONTINUOUS
10
7.1237641732283459
20
-3.2833004724409447
11
7.1242050787401574
21
-3.2843648818897635
0
LINE
8
BLACK
6
CONTINUOUS
10
7.1242050787401574
20
-3.2843648818897635
11
7.1242618110236222
21
-3.2849409448818898
0
LINE
8
BLACK
6
CONTINUOUS
10
7.1242618110236222
20
-3.2849409448818898
11
7.1242618110236222
21
-3.8400590551181102
0
LINE
8
BLACK
6
CONTINUOUS
10
7.1242618110236222
20
-3.8400590551181102
11
7.1242050787401574
21
-3.8406351181102361
0
LINE
8
BLACK
6
CONTINUOUS
10
7.1242050787401574
20
-3.8406351181102361
11
7.1237641732283459
21
-3.8416995275590549
0
LINE
8
BLACK
6
CONTINUOUS
10
7.1237641732283459
20
-3.8416995275590549
11
7.1229495275590553
21
-3.8425141732283463
0
LINE
8
BLACK
6
CONTINUOUS
10
7.1229495275590553
20
-3.8425141732283463
11
7.1218851181102361
21
-3.8429550787401574
0
LINE
8
BLACK
6
CONTINUOUS
10
7.1218851181102361
20
-3.8429550787401574
11
7.1213090551181102
21
-3.8430118110236218
0
LINE
8
BLACK
6
CONTINUOUS
10
7.1213090551181102
20
-3.8430118110236218
11
6.5661909448818898
21
-3.8430118110236218
0
LINE
8
BLACK
6
CONTINUOUS
10
6.5661909448818898
20
-3.8430118110236218
11
6.5656148818897639
21
-3.8429550787401574
0
LINE
8
BLACK
6
CONTINUOUS
10
6.5656148818897639
20
-3.8429550787401574
11
6.5645504724409447
21
-3.8425141732283463
0
LINE
8
BLACK
6
CONTINUOUS
10
6.5645504724409447
20
-3.8425141732283463
11
6.5637358267716532
21
-3.8416995275590549
0
LINE
8
BLACK
6
CONTINUOUS
10
6.5637358267716532
20
-3.8416995275590549
11
6.5632949212598426
21
-3.8406351181102361
0
LINE
8
BLACK
6
CONTINUOUS
10
6.5632949212598426
20
-3.8406351181102361
11
6.5632381889763778
21
-3.8400590551181102
0
LINE
8
BLACK
6
CONTINUOUS
10
6.5632381889763778
20
-3.8400590551181102
11
6.5632381889763778
21
-3.2849409448818898
0
LINE
8
BLACK
6
CONTINUOUS
10
6.5632381889763778
20
-3.2849409448818898
11
6.5632949212598426
21
-3.2843648818897635
0
LINE
8
BLACK
6
CONTINUOUS
10
6.5632949212598426
20
-3.2843648818897635
11
6.5637358267716532
21
-3.2833004724409447
0
LINE
8
BLACK
6
CONTINUOUS
10
6.5637358267716532
20
-3.2833004724409447
11
6.5645504724409447
21
-3.2824858267716537
0
LINE
8
BLACK
6
CONTINUOUS
10
6.5645504724409447
20
-3.2824858267716537
11
6.5656148818897639
21
-3.2820449212598426
0
LINE
8
BLACK
6
CONTINUOUS
10
6.5656148818897639
20
-3.2820449212598426
11
6.5661909448818898
21
-3.2819881889763778
0
LINE
8
BLACK
6
CONTINUOUS
10
6.5661909448818898
20
-3.2819881889763778
11
7.1213090551181102
21
-3.2819881889763778
0
LINE
8
BLACK
6
CONTINUOUS
10
7.1213090551181102
20
-3.2819881889763778
11
7.1218851181102361
21
-3.2820449212598426
0
LINE
8
BLACK
6
CONTINUOUS
10
6.5691437007874018
20
-3.2878937007874014
11
6.5691437007874018
21
-3.8371062992125982
0
LINE
8
BLACK
6
CONTINUOUS
10
6.5691437007874018
20
-3.8371062992125982
11
7.1183562992125982
21
-3.8371062992125982
0
LINE
8
BLACK
6
CONTINUOUS
10
7.1183562992125982
20
-3.8371062992125982
11
7.1183562992125982
21
-3.2878937007874014
0
LINE
8
BLACK
6
CONTINUOUS
10
7.1183562992125982
20
-3.2878937007874014
11
6.5691437007874018
21
-3.2878937007874014
0
LINE
8
BLACK
6
CONTINUOUS
10
7.8718851181102361
20
-3.2820449212598426
11
7.8729495275590553
21
-3.2824858267716537
0
LINE
8
BLACK
6
CONTINUOUS
10
7.8729495275590553
20
-3.2824858267716537
11
7.8737641732283459
21
-3.2833004724409447
0
LINE
8
BLACK
6
CONTINUOUS
10
7.8737641732283459
20
-3.2833004724409447
11
7.8742050787401574
21
-3.2843648818897635
0
LINE
8
BLACK
6
CONTINUOUS
10
7.8742050787401574
20
-3.2843648818897635
11
7.8742618110236222
21
-3.2849409448818898
0
LINE
8
BLACK
6
CONTINUOUS
10
7.8742618110236222
20
-3.2849409448818898
11
7.8742618110236222
21
-3.8400590551181102
0
LINE
8
BLACK
6
CONTINUOUS
10
7.8742618110236222
20
-3.8400590551181102
11
7.8742050787401574
21
-3.8406351181102361
0
LINE
8
BLACK
6
CONTINUOUS
10
7.8742050787401574
20
-3.8406351181102361
11
7.8737641732283459
21
-3.8416995275590549
0
LINE
8
BLACK
6
CONTINUOUS
10
7.8737641732283459
20
-3.8416995275590549
11
7.8729495275590553
21
-3.8425141732283463
0
LINE
8
BLACK
6
CONTINUOUS
10
7.8729495275590553
20
-3.8425141732283463
11
7.8718851181102361
21
-3.8429550787401574
0
LINE
8
BLACK
6
CONTINUOUS
10
7.8718851181102361
20
-3.8429550787401574
11
7.8713090551181102
21
-3.8430118110236218
0
LINE
8
BLACK
6
CONTINUOUS
10
7.8713090551181102
20
-3.8430118110236218
11
7.3161909448818898
21
-3.8430118110236218
0
LINE
8
BLACK
6
CONTINUOUS
10
7.3161909448818898
20
-3.8430118110236218
11
7.3156148818897639
21
-3.8429550787401574
0
LINE
8
BLACK
6
CONTINUOUS
10
7.3156148818897639
20
-3.8429550787401574
11
7.3145504724409447
21
-3.8425141732283463
0
LINE
8
BLACK
6
CONTINUOUS
10
7.3145504724409447
20
-3.8425141732283463
11
7.3137358267716532
21
-3.8416995275590549
0
LINE
8
BLACK
6
CONTINUOUS
10
7.3137358267716532
20
-3.8416995275590549
11
7.3132949212598426
21
-3.8406351181102361
0
LINE
8
BLACK
6
CONTINUOUS
10
7.3132949212598426
20
-3.8406351181102361
11
7.3132381889763778
21
-3.8400590551181102
0
LINE
8
BLACK
6
CONTINUOUS
10
7.3132381889763778
20
-3.8400590551181102
11
7.3132381889763778
21
-3.2849409448818898
0
LINE
8
BLACK
6
CONTINUOUS
10
7.3132381889763778
20
-3.2849409448818898
11
7.3132949212598426
21
-3.2843648818897635
0
LINE
8
BLACK
6
CONTINUOUS
10
7.3132949212598426
20
-3.2843648818897635
11
7.3137358267716532
21
-3.2833004724409447
0
LINE
8
BLACK
6
CONTINUOUS
10
7.3137358267716532
20
-3.2833004724409447
11
7.3145504724409447
21
-3.2824858267716537
0
LINE
8
BLACK
6
CONTINUOUS
10
7.3145504724409447
20
-3.2824858267716537
11
7.3156148818897639
21
-3.2820449212598426
0
LINE
8
BLACK
6
CONTINUOUS
10
7.3156148818897639
20
-3.2820449212598426
11
7.3161909448818898
21
-3.2819881889763778
0
LINE
8
BLACK
6
CONTINUOUS
10
7.3161909448818898
20
-3.2819881889763778
11
7.8713090551181102
21
-3.2819881889763778
0
LINE
8
BLACK
6
CONTINUOUS
10
7.8713090551181102
20
-3.2819881889763778
11
7.8718851181102361
21
-3.2820449212598426
0
LINE
8
BLACK
6
CONTINUOUS
10
7.3191437007874018
20
-3.2878937007874014
11
7.3191437007874018
21
-3.8371062992125982
0
LINE
8
BLACK
6
CONTINUOUS
10
7.3191437007874018
20
-3.8371062992125982
11
7.8683562992125982
21
-3.8371062992125982
0
LINE
8
BLACK
6
CONTINUOUS
10
7.8683562992125982
20
-3.8371062992125982
11
7.8683562992125982
21
-3.2878937007874014
0
LINE
8
BLACK
6
CONTINUOUS
10
7.8683562992125982
20
-3.2878937007874014
11
7.3191437007874018
21
-3.2878937007874014
0
LINE
8
BLACK
6
CONTINUOUS
10
8.6218851181102352
20
-3.2820449212598426
11
8.6229495275590544
21
-3.2824858267716537
0
LINE
8
BLACK
6
CONTINUOUS
10
8.6229495275590544
20
-3.2824858267716537
11
8.6237641732283468
21
-3.2833004724409447
0
LINE
8
BLACK
6
CONTINUOUS
10
8.6237641732283468
20
-3.2833004724409447
11
8.6242050787401574
21
-3.2843648818897635
0
LINE
8
BLACK
6
CONTINUOUS
10
8.6242050787401574
20
-3.2843648818897635
11
8.6242618110236222
21
-3.2849409448818898
0
LINE
8
BLACK
6
CONTINUOUS
10
8.6242618110236222
20
-3.2849409448818898
11
8.6242618110236222
21
-3.8400590551181102
0
LINE
8
BLACK
6
CONTINUOUS
10
8.6242618110236222
20
-3.8400590551181102
11
8.6242050787401574
21
-3.8406351181102361
0
LINE
8
BLACK
6
CONTINUOUS
10
8.6242050787401574
20
-3.8406351181102361
11
8.6237641732283468
21
-3.8416995275590549
0
LINE
8
BLACK
6
CONTINUOUS
10
8.6237641732283468
20
-3.8416995275590549
11
8.6229495275590544
21
-3.8425141732283463
0
LINE
8
BLACK
6
CONTINUOUS
10
8.6229495275590544
20
-3.8425141732283463
11
8.6218851181102352
21
-3.8429550787401574
0
LINE
8
BLACK
6
CONTINUOUS
10
8.6218851181102352
20
-3.8429550787401574
11
8.6213090551181093
21
-3.8430118110236218
0
LINE
8
BLACK
6
CONTINUOUS
10
8.6213090551181093
20
-3.8430118110236218
11
8.0661909448818889
21
-3.8430118110236218
0
LINE
8
BLACK
6
CONTINUOUS
10
8.0661909448818889
20
-3.8430118110236218
11
8.0656148818897631
21
-3.8429550787401574
0
LINE
8
BLACK
6
CONTINUOUS
10
8.0656148818897631
20
-3.8429550787401574
11
8.0645504724409456
21
-3.8425141732283463
0
LINE
8
BLACK
6
CONTINUOUS
10
8.0645504724409456
20
-3.8425141732283463
11
8.0637358267716532
21
-3.8416995275590549
0
LINE
8
BLACK
6
CONTINUOUS
10
8.0637358267716532
20
-3.8416995275590549
11
8.0632949212598426
21
-3.8406351181102361
0
LINE
8
BLACK
6
CONTINUOUS
10
8.0632949212598426
20
-3.8406351181102361
11
8.0632381889763778
21
-3.8400590551181102
0
LINE
8
BLACK
6
CONTINUOUS
10
8.0632381889763778
20
-3.8400590551181102
11
8.0632381889763778
21
-3.2849409448818898
0
LINE
8
BLACK
6
CONTINUOUS
10
8.0632381889763778
20
-3.2849409448818898
11
8.0632949212598426
21
-3.2843648818897635
0
LINE
8
BLACK
6
CONTINUOUS
10
8.0632949212598426
20
-3.2843648818897635
11
8.0637358267716532
21
-3.2833004724409447
0
LINE
8
BLACK
6
CONTINUOUS
10
8.0637358267716532
20
-3.2833004724409447
11
8.0645504724409456
21
-3.2824858267716537
0
LINE
8
BLACK
6
CONTINUOUS
10
8.0645504724409456
20
-3.2824858267716537
11
8.0656148818897631
21
-3.2820449212598426
0
LINE
8
BLACK
6
CONTINUOUS
10
8.0656148818897631
20
-3.2820449212598426
11
8.0661909448818889
21
-3.2819881889763778
0
LINE
8
BLACK
6
CONTINUOUS
10
8.0661909448818889
20
-3.2819881889763778
11
8.6213090551181093
21
-3.2819881889763778
0
LINE
8
BLACK
6
CONTINUOUS
10
8.6213090551181093
20
-3.2819881889763778
11
8.6218851181102352
21
-3.2820449212598426
0
LINE
8
BLACK
6
CONTINUOUS
10
8.0691437007874018
20
-3.2878937007874014
11
8.0691437007874018
21
-3.8371062992125982
0
LINE
8
BLACK
6
CONTINUOUS
10
8.0691437007874018
20
-3.8371062992125982
11
8.6183562992125982
21
-3.8371062992125982
0
LINE
8
BLACK
6
CONTINUOUS
10
8.6183562992125982
20
-3.8371062992125982
11
8.6183562992125982
21
-3.2878937007874014
0
LINE
8
BLACK
6
CONTINUOUS
10
8.6183562992125982
20
-3.2878937007874014
11
8.0691437007874018
21
-3.2878937007874014
0
LINE
8
BLACK
6
CONTINUOUS
10
9.3718851181102352
20
-3.2820449212598426
11
9.3729495275590544
21
-3.2824858267716537
0
LINE
8
BLACK
6
CONTINUOUS
10
9.3729495275590544
20
-3.2824858267716537
11
9.3737641732283468
21
-3.2833004724409447
0
LINE
8
BLACK
6
CONTINUOUS
10
9.3737641732283468
20
-3.2833004724409447
11
9.3742050787401574
21
-3.2843648818897635
0
LINE
8
BLACK
6
CONTINUOUS
10
9.3742050787401574
20
-3.2843648818897635
11
9.3742618110236222
21
-3.2849409448818898
0
LINE
8
BLACK
6
CONTINUOUS
10
9.3742618110236222
20
-3.2849409448818898
11
9.3742618110236222
21
-3.8400590551181102
0
LINE
8
BLACK
6
CONTINUOUS
10
9.3742618110236222
20
-3.8400590551181102
11
9.3742050787401574
21
-3.8406351181102361
0
LINE
8
BLACK
6
CONTINUOUS
10
9.3742050787401574
20
-3.8406351181102361
11
9.3737641732283468
21
-3.8416995275590549
0
LINE
8
BLACK
6
CONTINUOUS
10
9.3737641732283468
20
-3.8416995275590549
11
9.3729495275590544
21
-3.8425141732283463
0
LINE
8
BLACK
6
CONTINUOUS
10
9.3729495275590544
20
-3.8425141732283463
11
9.3718851181102352
21
-3.8429550787401574
0
LINE
8
BLACK
6
CONTINUOUS
10
9.3718851181102352
20
-3.8429550787401574
11
9.3713090551181093
21
-3.8430118110236218
0
LINE
8
BLACK
6
CONTINUOUS
10
9.3713090551181093
20
-3.8430118110236218
11
8.8161909448818889
21
-3.8430118110236218
0
LINE
8
BLACK
6
CONTINUOUS
10
8.8161909448818889
20
-3.8430118110236218
11
8.8156148818897631
21
-3.8429550787401574
0
LINE
8
BLACK
6
CONTINUOUS
10
8.8156148818897631
20
-3.8429550787401574
11
8.8145504724409438
21
-3.8425141732283463
0
LINE
8
BLACK
6
CONTINUOUS
10
8.8145504724409438
20
-3.8425141732283463
11
8.8137358267716532
21
-3.8416995275590549
0
LINE
8
BLACK
6
CONTINUOUS
10
8.8137358267716532
20
-3.8416995275590549
11
8.8132949212598426
21
-3.8406351181102361
0
LINE
8
BLACK
6
CONTINUOUS
10
8.8132949212598426
20
-3.8406351181102361
11
8.8132381889763778
21
-3.8400590551181102
0
LINE
8
BLACK
6
CONTINUOUS
10
8.8132381889763778
20
-3.8400590551181102
11
8.8132381889763778
21
-3.2849409448818898
0
LINE
8
BLACK
6
CONTINUOUS
10
8.8132381889763778
20
-3.2849409448818898
11
8.8132949212598426
21
-3.2843648818897635
0
LINE
8
BLACK
6
CONTINUOUS
10
8.8132949212598426
20
-3.2843648818897635
11
8.8137358267716532
21
-3.2833004724409447
0
LINE
8
BLACK
6
CONTINUOUS
10
8.8137358267716532
20
-3.2833004724409447
11
8.8145504724409438
21
-3.2824858267716537
0
LINE
8
BLACK
6
CONTINUOUS
10
8.8145504724409438
20
-3.2824858267716537
11
8.8156148818897631
21
-3.2820449212598426
0
LINE
8
BLACK
6
CONTINUOUS
10
8.8156148818897631
20
-3.2820449212598426
11
8.8161909448818889
21
-3.2819881889763778
0
LINE
8
BLACK
6
CONTINUOUS
10
8.8161909448818889
20
-3.2819881889763778
11
9.3713090551181093
21
-3.2819881889763778
0
LINE
8
BLACK
6
CONTINUOUS
10
9.3713090551181093
20
-3.2819881889763778
11
9.3718851181102352
21
-3.2820449212598426
0
LINE
8
BLACK
6
CONTINUOUS
10
8.8191437007874018
20
-3.2878937007874014
11
8.8191437007874018
21
-3.8371062992125982
0
LINE
8
BLACK
6
CONTINUOUS
10
8.8191437007874018
20
-3.8371062992125982
11
9.3683562992125982
21
-3.8371062992125982
0
LINE
8
BLACK
6
CONTINUOUS
10
9.3683562992125982
20
-3.8371062992125982
11
9.3683562992125982
21
-3.2878937007874014
0
LINE
8
BLACK
6
CONTINUOUS
10
9.3683562992125982
20
-3.2878937007874014
11
8.8191437007874018
21
-3.2878937007874014
0
LINE
8
BLACK
6
CONTINUOUS
10
4.8718851181102361
20
-2.5320449212598426
11
4.8729495275590553
21
-2.5324858267716537
0
LINE
8
BLACK
6
CONTINUOUS
10
4.8729495275590553
20
-2.5324858267716537
11
4.8737641732283468
21
-2.5333004724409447
0
LINE
8
BLACK
6
CONTINUOUS
10
4.8737641732283468
20
-2.5333004724409447
11
4.8742050787401574
21
-2.5343648818897639
0
LINE
8
BLACK
6
CONTINUOUS
10
4.8742050787401574
20
-2.5343648818897639
11
4.8742618110236222
21
-2.5349409448818898
0
LINE
8
BLACK
6
CONTINUOUS
10
4.8742618110236222
20
-2.5349409448818898
11
4.8742618110236222
21
-3.0900590551181102
0
LINE
8
BLACK
6
CONTINUOUS
10
4.8742618110236222
20
-3.0900590551181102
11
4.8742050787401574
21
-3.0906351181102361
0
LINE
8
BLACK
6
CONTINUOUS
10
4.8742050787401574
20
-3.0906351181102361
11
4.8737641732283468
21
-3.0916995275590549
0
LINE
8
BLACK
6
CONTINUOUS
10
4.8737641732283468
20
-3.0916995275590549
11
4.8729495275590553
21
-3.0925141732283463
0
LINE
8
BLACK
6
CONTINUOUS
10
4.8729495275590553
20
-3.0925141732283463
11
4.8718851181102361
21
-3.0929550787401574
0
LINE
8
BLACK
6
CONTINUOUS
10
4.8718851181102361
20
-3.0929550787401574
11
4.8713090551181102
21
-3.0930118110236218
0
LINE
8
BLACK
6
CONTINUOUS
10
4.8713090551181102
20
-3.0930118110236218
11
4.3161909448818898
21
-3.0930118110236218
0
LINE
8
BLACK
6
CONTINUOUS
10
4.3161909448818898
20
-3.0930118110236218
11
4.3156148818897639
21
-3.0929550787401574
0
LINE
8
BLACK
6
CONTINUOUS
10
4.3156148818897639
20
-3.0929550787401574
11
4.3145504724409447
21
-3.0925141732283463
0
LINE
8
BLACK
6
CONTINUOUS
10
4.3145504724409447
20
-3.0925141732283463
11
4.3137358267716532
21
-3.0916995275590549
0
LINE
8
BLACK
6
CONTINUOUS
10
4.3137358267716532
20
-3.0916995275590549
11
4.3132949212598426
21
-3.0906351181102361
0
LINE
8
BLACK
6
CONTINUOUS
10
4.3132949212598426
20
-3.0906351181102361
11
4.3132381889763778
21
-3.0900590551181102
0
LINE
8
BLACK
6
CONTINUOUS
10
4.3132381889763778
20
-3.0900590551181102
11
4.3132381889763778
21
-2.5349409448818898
0
LINE
8
BLACK
6
CONTINUOUS
10
4.3132381889763778
20
-2.5349409448818898
11
4.3132949212598426
21
-2.5343648818897639
0
LINE
8
BLACK
6
CONTINUOUS
10
4.3132949212598426
20
-2.5343648818897639
11
4.3137358267716532
21
-2.5333004724409447
0
LINE
8
BLACK
6
CONTINUOUS
10
4.3137358267716532
20
-2.5333004724409447
11
4.3145504724409447
21
-2.5324858267716537
0
LINE
8
BLACK
6
CONTINUOUS
10
4.3145504724409447
20
-2.5324858267716537
11
4.3156148818897639
21
-2.5320449212598426
0
LINE
8
BLACK
6
CONTINUOUS
10
4.3156148818897639
20
-2.5320449212598426
11
4.3161909448818898
21
-2.5319881889763778
0
LINE
8
BLACK
6
CONTINUOUS
10
4.3161909448818898
20
-2.5319881889763778
11
4.8713090551181102
21
-2.5319881889763778
0
LINE
8
BLACK
6
CONTINUOUS
10
4.8713090551181102
20
-2.5319881889763778
11
4.8718851181102361
21
-2.5320449212598426
0
LINE
8
BLACK
6
CONTINUOUS
10
4.3191437007874018
20
-2.5378937007874014
11
4.3191437007874018
21
-3.0871062992125982
0
LINE
8
BLACK
6
CONTINUOUS
10
4.3191437007874018
20
-3.0871062992125982
11
4.8683562992125982
21
-3.0871062992125982
0
LINE
8
BLACK
6
CONTINUOUS
10
4.8683562992125982
20
-3.0871062992125982
11
4.8683562992125982
21
-2.5378937007874014
0
LINE
8
BLACK
6
CONTINUOUS
10
4.8683562992125982
20
-2.5378937007874014
11
4.3191437007874018
21
-2.5378937007874014
0
LINE
8
BLACK
6
CONTINUOUS
10
5.6218851181102361
20
-2.5320449212598426
11
5.6229495275590553
21
-2.5324858267716537
0
LINE
8
BLACK
6
CONTINUOUS
10
5.6229495275590553
20
-2.5324858267716537
11
5.6237641732283468
21
-2.5333004724409447
0
LINE
8
BLACK
6
CONTINUOUS
10
5.6237641732283468
20
-2.5333004724409447
11
5.6242050787401574
21
-2.5343648818897639
0
LINE
8
BLACK
6
CONTINUOUS
10
5.6242050787401574
20
-2.5343648818897639
11
5.6242618110236222
21
-2.5349409448818898
0
LINE
8
BLACK
6
CONTINUOUS
10
5.6242618110236222
20
-2.5349409448818898
11
5.6242618110236222
21
-3.0900590551181102
0
LINE
8
BLACK
6
CONTINUOUS
10
5.6242618110236222
20
-3.0900590551181102
11
5.6242050787401574
21
-3.0906351181102361
0
LINE
8
BLACK
6
CONTINUOUS
10
5.6242050787401574
20
-3.0906351181102361
11
5.6237641732283468
21
-3.0916995275590549
0
LINE
8
BLACK
6
CONTINUOUS
10
5.6237641732283468
20
-3.0916995275590549
11
5.6229495275590553
21
-3.0925141732283463
0
LINE
8
BLACK
6
CONTINUOUS
10
5.6229495275590553
20
-3.0925141732283463
11
5.6218851181102361
21
-3.0929550787401574
0
LINE
8
BLACK
6
CONTINUOUS
10
5.6218851181102361
20
-3.0929550787401574
11
5.6213090551181102
21
-3.0930118110236218
0
LINE
8
BLACK
6
CONTINUOUS
10
5.6213090551181102
20
-3.0930118110236218
11
5.0661909448818898
21
-3.0930118110236218
0
LINE
8
BLACK
6
CONTINUOUS
10
5.0661909448818898
20
-3.0930118110236218
11
5.0656148818897639
21
-3.0929550787401574
0
LINE
8
BLACK
6
CONTINUOUS
10
5.0656148818897639
20
-3.0929550787401574
11
5.0645504724409447
21
-3.0925141732283463
0
LINE
8
BLACK
6
CONTINUOUS
10
5.0645504724409447
20
-3.0925141732283463
11
5.0637358267716532
21
-3.0916995275590549
0
LINE
8
BLACK
6
CONTINUOUS
10
5.0637358267716532
20
-3.0916995275590549
11
5.0632949212598426
21
-3.0906351181102361
0
LINE
8
BLACK
6
CONTINUOUS
10
5.0632949212598426
20
-3.0906351181102361
11
5.0632381889763778
21
-3.0900590551181102
0
LINE
8
BLACK
6
CONTINUOUS
10
5.0632381889763778
20
-3.0900590551181102
11
5.0632381889763778
21
-2.5349409448818898
0
LINE
8
BLACK
6
CONTINUOUS
10
5.0632381889763778
20
-2.5349409448818898
11
5.0632949212598426
21
-2.5343648818897639
0
LINE
8
BLACK
6
CONTINUOUS
10
5.0632949212598426
20
-2.5343648818897639
11
5.0637358267716532
21
-2.5333004724409447
0
LINE
8
BLACK
6
CONTINUOUS
10
5.0637358267716532
20
-2.5333004724409447
11
5.0645504724409447
21
-2.5324858267716537
0
LINE
8
BLACK
6
CONTINUOUS
10
5.0645504724409447
20
-2.5324858267716537
11
5.0656148818897639
21
-2.5320449212598426
0
LINE
8
BLACK
6
CONTINUOUS
10
5.0656148818897639
20
-2.5320449212598426
11
5.0661909448818898
21
-2.5319881889763778
0
LINE
8
BLACK
6
CONTINUOUS
10
5.0661909448818898
20
-2.5319881889763778
11
5.6213090551181102
21
-2.5319881889763778
0
LINE
8
BLACK
6
CONTINUOUS
10
5.6213090551181102
20
-2.5319881889763778
11
5.6218851181102361
21
-2.5320449212598426
0
LINE
8
BLACK
6
CONTINUOUS
10
5.0691437007874018
20
-2.5378937007874014
11
5.0691437007874018
21
-3.0871062992125982
0
LINE
8
BLACK
6
CONTINUOUS
10
5.0691437007874018
20
-3.0871062992125982
11
5.6183562992125982
21
-3.0871062992125982
0
LINE
8
BLACK
6
CONTINUOUS
10
5.6183562992125982
20
-3.0871062992125982
11
5.6183562992125982
21
-2.5378937007874014
0
LINE
8
BLACK
6
CONTINUOUS
10
5.6183562992125982
20
-2.5378937007874014
11
5.0691437007874018
21
-2.5378937007874014
0
LINE
8
BLACK
6
CONTINUOUS
10
6.3718851181102361
20
-2.5320449212598426
11
6.3729495275590553
21
-2.5324858267716537
0
LINE
8
BLACK
6
CONTINUOUS
10
6.3729495275590553
20
-2.5324858267716537
11
6.3737641732283459
21
-2.5333004724409447
0
LINE
8
BLACK
6
CONTINUOUS
10
6.3737641732283459
20
-2.5333004724409447
11
6.3742050787401574
21
-2.5343648818897639
0
LINE
8
BLACK
6
CONTINUOUS
10
6.3742050787401574
20
-2.5343648818897639
11
6.3742618110236222
21
-2.5349409448818898
0
LINE
8
BLACK
6
CONTINUOUS
10
6.3742618110236222
20
-2.5349409448818898
11
6.3742618110236222
21
-3.0900590551181102
0
LINE
8
BLACK
6
CONTINUOUS
10
6.3742618110236222
20
-3.0900590551181102
11
6.3742050787401574
21
-3.0906351181102361
0
LINE
8
BLACK
6
CONTINUOUS
10
6.3742050787401574
20
-3.0906351181102361
11
6.3737641732283459
21
-3.0916995275590549
0
LINE
8
BLACK
6
CONTINUOUS
10
6.3737641732283459
20
-3.0916995275590549
11
6.3729495275590553
21
-3.0925141732283463
0
LINE
8
BLACK
6
CONTINUOUS
10
6.3729495275590553
20
-3.0925141732283463
11
6.3718851181102361
21
-3.0929550787401574
0
LINE
8
BLACK
6
CONTINUOUS
10
6.3718851181102361
20
-3.0929550787401574
11
6.3713090551181102
21
-3.0930118110236218
0
LINE
8
BLACK
6
CONTINUOUS
10
6.3713090551181102
20
-3.0930118110236218
11
5.8161909448818898
21
-3.0930118110236218
0
LINE
8
BLACK
6
CONTINUOUS
10
5.8161909448818898
20
-3.0930118110236218
11
5.8156148818897639
21
-3.0929550787401574
0
LINE
8
BLACK
6
CONTINUOUS
10
5.8156148818897639
20
-3.0929550787401574
11
5.8145504724409447
21
-3.0925141732283463
0
LINE
8
BLACK
6
CONTINUOUS
10
5.8145504724409447
20
-3.0925141732283463
11
5.8137358267716532
21
-3.0916995275590549
0
LINE
8
BLACK
6
CONTINUOUS
10
5.8137358267716532
20
-3.0916995275590549
11
5.8132949212598426
21
-3.0906351181102361
0
LINE
8
BLACK
6
CONTINUOUS
10
5.8132949212598426
20
-3.0906351181102361
11
5.8132381889763778
21
-3.0900590551181102
0
LINE
8
BLACK
6
CONTINUOUS
10
5.8132381889763778
20
-3.0900590551181102
11
5.8132381889763778
21
-2.5349409448818898
0
LINE
8
BLACK
6
CONTINUOUS
10
5.8132381889763778
20
-2.5349409448818898
11
5.8132949212598426
21
-2.5343648818897639
0
LINE
8
BLACK
6
CONTINUOUS
10
5.8132949212598426
20
-2.5343648818897639
11
5.8137358267716532
21
-2.5333004724409447
0
LINE
8
BLACK
6
CONTINUOUS
10
5.8137358267716532
20
-2.5333004724409447
11
5.8145504724409447
21
-2.5324858267716537
0
LINE
8
BLACK
6
CONTINUOUS
10
5.8145504724409447
20
-2.5324858267716537
11
5.8156148818897639
21
-2.5320449212598426
0
LINE
8
BLACK
6
CONTINUOUS
10
5.8156148818897639
20
-2.5320449212598426
11
5.8161909448818898
21
-2.5319881889763778
0
LINE
8
BLACK
6
CONTINUOUS
10
5.8161909448818898
20
-2.5319881889763778
11
6.3713090551181102
21
-2.5319881889763778
0
LINE
8
BLACK
6
CONTINUOUS
10
6.3713090551181102
20
-2.5319881889763778
11
6.3718851181102361
21
-2.5320449212598426
0
LINE
8
BLACK
6
CONTINUOUS
10
5.8191437007874018
20
-2.5378937007874014
11
5.8191437007874018
21
-3.0871062992125982
0
LINE
8
BLACK
6
CONTINUOUS
10
5.8191437007874018
20
-3.0871062992125982
11
6.3683562992125982
21
-3.0871062992125982
0
LINE
8
BLACK
6
CONTINUOUS
10
6.3683562992125982
20
-3.0871062992125982
11
6.3683562992125982
21
-2.5378937007874014
0
LINE
8
BLACK
6
CONTINUOUS
10
6.3683562992125982
20
-2.5378937007874014
11
5.8191437007874018
21
-2.5378937007874014
0
LINE
8
BLACK
6
CONTINUOUS
10
7.1218851181102361
20
-2.5320449212598426
11
7.1229495275590553
21
-2.5324858267716537
0
LINE
8
BLACK
6
CONTINUOUS
10
7.1229495275590553
20
-2.5324858267716537
11
7.1237641732283459
21
-2.5333004724409447
0
LINE
8
BLACK
6
CONTINUOUS
10
7.1237641732283459
20
-2.5333004724409447
11
7.1242050787401574
21
-2.5343648818897639
0
LINE
8
BLACK
6
CONTINUOUS
10
7.1242050787401574
20
-2.5343648818897639
11
7.1242618110236222
21
-2.5349409448818898
0
LINE
8
BLACK
6
CONTINUOUS
10
7.1242618110236222
20
-2.5349409448818898
11
7.1242618110236222
21
-3.0900590551181102
0
LINE
8
BLACK
6
CONTINUOUS
10
7.1242618110236222
20
-3.0900590551181102
11
7.1242050787401574
21
-3.0906351181102361
0
LINE
8
BLACK
6
CONTINUOUS
10
7.1242050787401574
20
-3.0906351181102361
11
7.1237641732283459
21
-3.0916995275590549
0
LINE
8
BLACK
6
CONTINUOUS
10
7.1237641732283459
20
-3.0916995275590549
11
7.1229495275590553
21
-3.0925141732283463
0
LINE
8
BLACK
6
CONTINUOUS
10
7.1229495275590553
20
-3.0925141732283463
11
7.1218851181102361
21
-3.0929550787401574
0
LINE
8
BLACK
6
CONTINUOUS
10
7.1218851181102361
20
-3.0929550787401574
11
7.1213090551181102
21
-3.0930118110236218
0
LINE
8
BLACK
6
CONTINUOUS
10
7.1213090551181102
20
-3.0930118110236218
11
6.5661909448818898
21
-3.0930118110236218
0
LINE
8
BLACK
6
CONTINUOUS
10
6.5661909448818898
20
-3.0930118110236218
11
6.5656148818897639
21
-3.0929550787401574
0
LINE
8
BLACK
6
CONTINUOUS
10
6.5656148818897639
20
-3.0929550787401574
11
6.5645504724409447
21
-3.0925141732283463
0
LINE
8
BLACK
6
CONTINUOUS
10
6.5645504724409447
20
-3.0925141732283463
11
6.5637358267716532
21
-3.0916995275590549
0
LINE
8
BLACK
6
CONTINUOUS
10
6.5637358267716532
20
-3.0916995275590549
11
6.5632949212598426
21
-3.0906351181102361
0
LINE
8
BLACK
6
CONTINUOUS
10
6.5632949212598426
20
-3.0906351181102361
11
6.5632381889763778
21
-3.0900590551181102
0
LINE
8
BLACK
6
CONTINUOUS
10
6.5632381889763778
20
-3.0900590551181102
11
6.5632381889763778
21
-2.5349409448818898
0
LINE
8
BLACK
6
CONTINUOUS
10
6.5632381889763778
20
-2.5349409448818898
11
6.5632949212598426
21
-2.5343648818897639
0
LINE
8
BLACK
6
CONTINUOUS
10
6.5632949212598426
20
-2.5343648818897639
11
6.5637358267716532
21
-2.5333004724409447
0
LINE
8
BLACK
6
CONTINUOUS
10
6.5637358267716532
20
-2.5333004724409447
11
6.5645504724409447
21
-2.5324858267716537
0
LINE
8
BLACK
6
CONTINUOUS
10
6.5645504724409447
20
-2.5324858267716537
11
6.5656148818897639
21
-2.5320449212598426
0
LINE
8
BLACK
6
CONTINUOUS
10
6.5656148818897639
20
-2.5320449212598426
11
6.5661909448818898
21
-2.5319881889763778
0
LINE
8
BLACK
6
CONTINUOUS
10
6.5661909448818898
20
-2.5319881889763778
11
7.1213090551181102
21
-2.5319881889763778
0
LINE
8
BLACK
6
CONTINUOUS
10
7.1213090551181102
20
-2.5319881889763778
11
7.1218851181102361
21
-2.5320449212598426
0
LINE
8
BLACK
6
CONTINUOUS
10
6.5691437007874018
20
-2.5378937007874014
11
6.5691437007874018
21
-3.0871062992125982
0
LINE
8
BLACK
6
CONTINUOUS
10
6.5691437007874018
20
-3.0871062992125982
11
7.1183562992125982
21
-3.0871062992125982
0
LINE
8
BLACK
6
CONTINUOUS
10
7.1183562992125982
20
-3.0871062992125982
11
7.1183562992125982
21
-2.5378937007874014
0
LINE
8
BLACK
6
CONTINUOUS
10
7.1183562992125982
20
-2.5378937007874014
11
6.5691437007874018
21
-2.5378937007874014
0
LINE
8
BLACK
6
CONTINUOUS
10
7.8718851181102361
20
-2.5320449212598426
11
7.8729495275590553
21
-2.5324858267716537
0
LINE
8
BLACK
6
CONTINUOUS
10
7.8729495275590553
20
-2.5324858267716537
11
7.8737641732283459
21
-2.5333004724409447
0
LINE
8
BLACK
6
CONTINUOUS
10
7.8737641732283459
20
-2.5333004724409447
11
7.8742050787401574
21
-2.5343648818897639
0
LINE
8
BLACK
6
CONTINUOUS
10
7.8742050787401574
20
-2.5343648818897639
11
7.8742618110236222
21
-2.5349409448818898
0
LINE
8
BLACK
6
CONTINUOUS
10
7.8742618110236222
20
-2.5349409448818898
11
7.8742618110236222
21
-3.0900590551181102
0
LINE
8
BLACK
6
CONTINUOUS
10
7.8742618110236222
20
-3.0900590551181102
11
7.8742050787401574
21
-3.0906351181102361
0
LINE
8
BLACK
6
CONTINUOUS
10
7.8742050787401574
20
-3.0906351181102361
11
7.8737641732283459
21
-3.0916995275590549
0
LINE
8
BLACK
6
CONTINUOUS
10
7.8737641732283459
20
-3.0916995275590549
11
7.8729495275590553
21
-3.0925141732283463
0
LINE
8
BLACK
6
CONTINUOUS
10
7.8729495275590553
20
-3.0925141732283463
11
7.8718851181102361
21
-3.0929550787401574
0
LINE
8
BLACK
6
CONTINUOUS
10
7.8718851181102361
20
-3.0929550787401574
11
7.8713090551181102
21
-3.0930118110236218
0
LINE
8
BLACK
6
CONTINUOUS
10
7.8713090551181102
20
-3.0930118110236218
11
7.3161909448818898
21
-3.0930118110236218
0
LINE
8
BLACK
6
CONTINUOUS
10
7.3161909448818898
20
-3.0930118110236218
11
7.3156148818897639
21
-3.0929550787401574
0
LINE
8
BLACK
6
CONTINUOUS
10
7.3156148818897639
20
-3.0929550787401574
11
7.3145504724409447
21
-3.0925141732283463
0
LINE
8
BLACK
6
CONTINUOUS
10
7.3145504724409447
20
-3.0925141732283463
11
7.3137358267716532
21
-3.0916995275590549
0
LINE
8
BLACK
6
CONTINUOUS
10
7.3137358267716532
20
-3.0916995275590549
11
7.3132949212598426
21
-3.0906351181102361
0
LINE
8
BLACK
6
CONTINUOUS
10
7.3132949212598426
20
-3.0906351181102361
11
7.3132381889763778
21
-3.0900590551181102
0
LINE
8
BLACK
6
CONTINUOUS
10
7.3132381889763778
20
-3.0900590551181102
11
7.3132381889763778
21
-2.5349409448818898
0
LINE
8
BLACK
6
CONTINUOUS
10
7.3132381889763778
20
-2.5349409448818898
11
7.3132949212598426
21
-2.5343648818897639
0
LINE
8
BLACK
6
CONTINUOUS
10
7.3132949212598426
20
-2.5343648818897639
11
7.3137358267716532
21
-2.5333004724409447
0
LINE
8
BLACK
6
CONTINUOUS
10
7.3137358267716532
20
-2.5333004724409447
11
7.3145504724409447
21
-2.5324858267716537
0
LINE
8
BLACK
6
CONTINUOUS
10
7.3145504724409447
20
-2.5324858267716537
11
7.3156148818897639
21
-2.5320449212598426
0
LINE
8
BLACK
6
CONTINUOUS
10
7.3156148818897639
20
-2.5320449212598426
11
7.3161909448818898
21
-2.5319881889763778
0
LINE
8
BLACK
6
CONTINUOUS
10
7.3161909448818898
20
-2.5319881889763778
11
7.8713090551181102
21
-2.5319881889763778
0
LINE
8
BLACK
6
CONTINUOUS
10
7.8713090551181102
20
-2.5319881889763778
11
7.8718851181102361
21
-2.5320449212598426
0
LINE
8
BLACK
6
CONTINUOUS
10
7.3191437007874018
20
-2.5378937007874014
11
7.3191437007874018
21
-3.0871062992125982
0
LINE
8
BLACK
6
CONTINUOUS
10
7.3191437007874018
20
-3.0871062992125982
11
7.8683562992125982
21
-3.0871062992125982
0
LINE
8
BLACK
6
CONTINUOUS
10
7.8683562992125982
20
-3.0871062992125982
11
7.8683562992125982
21
-2.5378937007874014
0
LINE
8
BLACK
6
CONTINUOUS
10
7.8683562992125982
20
-2.5378937007874014
11
7.3191437007874018
21
-2.5378937007874014
0
LINE
8
BLACK
6
CONTINUOUS
10
8.6218851181102352
20
-2.5320449212598426
11
8.6229495275590544
21
-2.5324858267716537
0
LINE
8
BLACK
6
CONTINUOUS
10
8.6229495275590544
20
-2.5324858267716537
11
8.6237641732283468
21
-2.5333004724409447
0
LINE
8
BLACK
6
CONTINUOUS
10
8.6237641732283468
20
-2.5333004724409447
11
8.6242050787401574
21
-2.5343648818897639
0
LINE
8
BLACK
6
CONTINUOUS
10
8.6242050787401574
20
-2.5343648818897639
11
8.6242618110236222
21
-2.5349409448818898
0
LINE
8
BLACK
6
CONTINUOUS
10
8.6242618110236222
20
-2.5349409448818898
11
8.6242618110236222
21
-3.0900590551181102
0
LINE
8
BLACK
6
CONTINUOUS
10
8.6242618110236222
20
-3.0900590551181102
11
8.6242050787401574
21
-3.0906351181102361
0
LINE
8
BLACK
6
CONTINUOUS
10
8.6242050787401574
20
-3.0906351181102361
11
8.6237641732283468
21
-3.0916995275590549
0
LINE
8
BLACK
6
CONTINUOUS
10
8.6237641732283468
20
-3.0916995275590549
11
8.6229495275590544
21
-3.0925141732283463
0
LINE
8
BLACK
6
CONTINUOUS
10
8.6229495275590544
20
-3.0925141732283463
11
8.6218851181102352
21
-3.0929550787401574
0
LINE
8
BLACK
6
CONTINUOUS
10
8.6218851181102352
20
-3.0929550787401574
11
8.6213090551181093
21
-3.0930118110236218
0
LINE
8
BLACK
6
CONTINUOUS
10
8.6213090551181093
20
-3.0930118110236218
11
8.0661909448818889
21
-3.0930118110236218
0
LINE
8
BLACK
6
CONTINUOUS
10
8.0661909448818889
20
-3.0930118110236218
11
8.0656148818897631
21
-3.0929550787401574
0
LINE
8
BLACK
6
CONTINUOUS
10
8.0656148818897631
20
-3.0929550787401574
11
8.0645504724409456
21
-3.0925141732283463
0
LINE
8
BLACK
6
CONTINUOUS
10
8.0645504724409456
20
-3.0925141732283463
11
8.0637358267716532
21
-3.0916995275590549
0
LINE
8
BLACK
6
CONTINUOUS
10
8.0637358267716532
20
-3.0916995275590549
11
8.0632949212598426
21
-3.0906351181102361
0
LINE
8
BLACK
6
CONTINUOUS
10
8.0632949212598426
20
-3.0906351181102361
11
8.0632381889763778
21
-3.0900590551181102
0
LINE
8
BLACK
6
CONTINUOUS
10
8.0632381889763778
20
-3.0900590551181102
11
8.0632381889763778
21
-2.5349409448818898
0
LINE
8
BLACK
6
CONTINUOUS
10
8.0632381889763778
20
-2.5349409448818898
11
8.0632949212598426
21
-2.5343648818897639
0
LINE
8
BLACK
6
CONTINUOUS
10
8.0632949212598426
20
-2.5343648818897639
11
8.0637358267716532
21
-2.5333004724409447
0
LINE
8
BLACK
6
CONTINUOUS
10
8.0637358267716532
20
-2.5333004724409447
11
8.0645504724409456
21
-2.5324858267716537
0
LINE
8
BLACK
6
CONTINUOUS
10
8.0645504724409456
20
-2.5324858267716537
11
8.0656148818897631
21
-2.5320449212598426
0
LINE
8
BLACK
6
CONTINUOUS
10
8.0656148818897631
20
-2.5320449212598426
11
8.0661909448818889
21
-2.5319881889763778
0
LINE
8
BLACK
6
CONTINUOUS
10
8.0661909448818889
20
-2.5319881889763778
11
8.6213090551181093
21
-2.5319881889763778
0
LINE
8
BLACK
6
CONTINUOUS
10
8.6213090551181093
20
-2.5319881889763778
11
8.6218851181102352
21
-2.5320449212598426
0
LINE
8
BLACK
6
CONTINUOUS
10
8.0691437007874018
20
-2.5378937007874014
11
8.0691437007874018
21
-3.0871062992125982
0
LINE
8
BLACK
6
CONTINUOUS
10
8.0691437007874018
20
-3.0871062992125982
11
8.6183562992125982
21
-3.0871062992125982
0
LINE
8
BLACK
6
CONTINUOUS
10
8.6183562992125982
20
-3.0871062992125982
11
8.6183562992125982
21
-2.5378937007874014
0
LINE
8
BLACK
6
CONTINUOUS
10
8.6183562992125982
20
-2.5378937007874014
11
8.0691437007874018
21
-2.5378937007874014
0
LINE
8
BLACK
6
CONTINUOUS
10
9.3718851181102352
20
-2.5320449212598426
11
9.3729495275590544
21
-2.5324858267716537
0
LINE
8
BLACK
6
CONTINUOUS
10
9.3729495275590544
20
-2.5324858267716537
11
9.3737641732283468
21
-2.5333004724409447
0
LINE
8
BLACK
6
CONTINUOUS
10
9.3737641732283468
20
-2.5333004724409447
11
9.3742050787401574
21
-2.5343648818897639
0
LINE
8
BLACK
6
CONTINUOUS
10
9.3742050787401574
20
-2.5343648818897639
11
9.3742618110236222
21
-2.5349409448818898
0
LINE
8
BLACK
6
CONTINUOUS
10
9.3742618110236222
20
-2.5349409448818898
11
9.3742618110236222
21
-3.0900590551181102
0
LINE
8
BLACK
6
CONTINUOUS
10
9.3742618110236222
20
-3.0900590551181102
11
9.3742050787401574
21
-3.0906351181102361
0
LINE
8
BLACK
6
CONTINUOUS
10
9.3742050787401574
20
-3.0906351181102361
11
9.3737641732283468
21
-3.0916995275590549
0
LINE
8
BLACK
6
CONTINUOUS
10
9.3737641732283468
20
-3.0916995275590549
11
9.3729495275590544
21
-3.0925141732283463
0
LINE
8
BLACK
6
CONTINUOUS
10
9.3729495275590544
20
-3.0925141732283463
11
9.3718851181102352
21
-3.0929550787401574
0
LINE
8
BLACK
6
CONTINUOUS
10
9.3718851181102352
20
-3.0929550787401574
11
9.3713090551181093
21
-3.0930118110236218
0
LINE
8
BLACK
6
CONTINUOUS
10
9.3713090551181093
20
-3.0930118110236218
11
8.8161909448818889
21
-3.0930118110236218
0
LINE
8
BLACK
6
CONTINUOUS
10
8.8161909448818889
20
-3.0930118110236218
11
8.8156148818897631
21
-3.0929550787401574
0
LINE
8
BLACK
6
CONTINUOUS
10
8.8156148818897631
20
-3.0929550787401574
11
8.8145504724409438
21
-3.0925141732283463
0
LINE
8
BLACK
6
CONTINUOUS
10
8.8145504724409438
20
-3.0925141732283463
11
8.8137358267716532
21
-3.0916995275590549
0
LINE
8
BLACK
6
CONTINUOUS
10
8.8137358267716532
20
-3.0916995275590549
11
8.8132949212598426
21
-3.0906351181102361
0
LINE
8
BLACK
6
CONTINUOUS
10
8.8132949212598426
20
-3.0906351181102361
11
8.8132381889763778
21
-3.0900590551181102
0
LINE
8
BLACK
6
CONTINUOUS
10
8.8132381889763778
20
-3.0900590551181102
11
8.8132381889763778
21
-2.5349409448818898
0
LINE
8
BLACK
6
CONTINUOUS
10
8.8132381889763778
20
-2.5349409448818898
11
8.8132949212598426
21
-2.5343648818897639
0
LINE
8
BLACK
6
CONTINUOUS
10
8.8132949212598426
20
-2.5343648818897639
11
8.8137358267716532
21
-2.5333004724409447
0
LINE
8
BLACK
6
CONTINUOUS
10
8.8137358267716532
20
-2.5333004724409447
11
8.8145504724409438
21
-2.5324858267716537
0
LINE
8
BLACK
6
CONTINUOUS
10
8.8145504724409438
20
-2.5324858267716537
11
8.8156148818897631
21
-2.5320449212598426
0
LINE
8
BLACK
6
CONTINUOUS
10
8.8156148818897631
20
-2.5320449212598426
11
8.8161909448818889
21
-2.5319881889763778
0
LINE
8
BLACK
6
CONTINUOUS
10
8.8161909448818889
20
-2.5319881889763778
11
9.3713090551181093
21
-2.5319881889763778
0
LINE
8
BLACK
6
CONTINUOUS
10
9.3713090551181093
20
-2.5319881889763778
11
9.3718851181102352
21
-2.5320449212598426
0
LINE
8
BLACK
6
CONTINUOUS
10
8.8191437007874018
20
-2.5378937007874014
11
8.8191437007874018
21
-3.0871062992125982
0
LINE
8
BLACK
6
CONTINUOUS
10
8.8191437007874018
20
-3.0871062992125982
11
9.3683562992125982
21
-3.0871062992125982
0
LINE
8
BLACK
6
CONTINUOUS
10
9.3683562992125982
20
-3.0871062992125982
11
9.3683562992125982
21
-2.5378937007874014
0
LINE
8
BLACK
6
CONTINUOUS
10
9.3683562992125982
20
-2.5378937007874014
11
8.8191437007874018
21
-2.5378937007874014
0
LINE
8
BLACK
6
CONTINUOUS
10
4.8718851181102361
20
-1.7820449212598424
11
4.8729495275590553
21
-1.7824858267716535
0
LINE
8
BLACK
6
CONTINUOUS
10
4.8729495275590553
20
-1.7824858267716535
11
4.8737641732283468
21
-1.7833004724409449
0
LINE
8
BLACK
6
CONTINUOUS
10
4.8737641732283468
20
-1.7833004724409449
11
4.8742050787401574
21
-1.7843648818897637
0
LINE
8
BLACK
6
CONTINUOUS
10
4.8742050787401574
20
-1.7843648818897637
11
4.8742618110236222
21
-1.7849409448818898
0
LINE
8
BLACK
6
CONTINUOUS
10
4.8742618110236222
20
-1.7849409448818898
11
4.8742618110236222
21
-2.3400590551181102
0
LINE
8
BLACK
6
CONTINUOUS
10
4.8742618110236222
20
-2.3400590551181102
11
4.8742050787401574
21
-2.3406351181102361
0
LINE
8
BLACK
6
CONTINUOUS
10
4.8742050787401574
20
-2.3406351181102361
11
4.8737641732283468
21
-2.3416995275590549
0
LINE
8
BLACK
6
CONTINUOUS
10
4.8737641732283468
20
-2.3416995275590549
11
4.8729495275590553
21
-2.3425141732283463
0
LINE
8
BLACK
6
CONTINUOUS
10
4.8729495275590553
20
-2.3425141732283463
11
4.8718851181102361
21
-2.3429550787401574
0
LINE
8
BLACK
6
CONTINUOUS
10
4.8718851181102361
20
-2.3429550787401574
11
4.8713090551181102
21
-2.3430118110236222
0
LINE
8
BLACK
6
CONTINUOUS
10
4.8713090551181102
20
-2.3430118110236222
11
4.3161909448818898
21
-2.3430118110236222
0
LINE
8
BLACK
6
CONTINUOUS
10
4.3161909448818898
20
-2.3430118110236222
11
4.3156148818897639
21
-2.3429550787401574
0
LINE
8
BLACK
6
CONTINUOUS
10
4.3156148818897639
20
-2.3429550787401574
11
4.3145504724409447
21
-2.3425141732283463
0
LINE
8
BLACK
6
CONTINUOUS
10
4.3145504724409447
20
-2.3425141732283463
11
4.3137358267716532
21
-2.3416995275590549
0
LINE
8
BLACK
6
CONTINUOUS
10
4.3137358267716532
20
-2.3416995275590549
11
4.3132949212598426
21
-2.3406351181102361
0
LINE
8
BLACK
6
CONTINUOUS
10
4.3132949212598426
20
-2.3406351181102361
11
4.3132381889763778
21
-2.3400590551181102
0
LINE
8
BLACK
6
CONTINUOUS
10
4.3132381889763778
20
-2.3400590551181102
11
4.3132381889763778
21
-1.7849409448818898
0
LINE
8
BLACK
6
CONTINUOUS
10
4.3132381889763778
20
-1.7849409448818898
11
4.3132949212598426
21
-1.7843648818897637
0
LINE
8
BLACK
6
CONTINUOUS
10
4.3132949212598426
20
-1.7843648818897637
11
4.3137358267716532
21
-1.7833004724409449
0
LINE
8
BLACK
6
CONTINUOUS
10
4.3137358267716532
20
-1.7833004724409449
11
4.3145504724409447
21
-1.7824858267716535
0
LINE
8
BLACK
6
CONTINUOUS
10
4.3145504724409447
20
-1.7824858267716535
11
4.3156148818897639
21
-1.7820449212598424
0
LINE
8
BLACK
6
CONTINUOUS
10
4.3156148818897639
20
-1.7820449212598424
11
4.3161909448818898
21
-1.781988188976378
0
LINE
8
BLACK
6
CONTINUOUS
10
4.3161909448818898
20
-1.781988188976378
11
4.8713090551181102
21
-1.781988188976378
0
LINE
8
BLACK
6
CONTINUOUS
10
4.8713090551181102
20
-1.781988188976378
11
4.8718851181102361
21
-1.7820449212598424
0
LINE
8
BLACK
6
CONTINUOUS
10
4.3191437007874018
20
-1.7878937007874016
11
4.3191437007874018
21
-2.3371062992125982
0
LINE
8
BLACK
6
CONTINUOUS
10
4.3191437007874018
20
-2.3371062992125982
11
4.8683562992125982
21
-2.3371062992125982
0
LINE
8
BLACK
6
CONTINUOUS
10
4.8683562992125982
20
-2.3371062992125982
11
4.8683562992125982
21
-1.7878937007874016
0
LINE
8
BLACK
6
CONTINUOUS
10
4.8683562992125982
20
-1.7878937007874016
11
4.3191437007874018
21
-1.7878937007874016
0
LINE
8
BLACK
6
CONTINUOUS
10
5.6218851181102361
20
-1.7820449212598424
11
5.6229495275590553
21
-1.7824858267716535
0
LINE
8
BLACK
6
CONTINUOUS
10
5.6229495275590553
20
-1.7824858267716535
11
5.6237641732283468
21
-1.7833004724409449
0
LINE
8
BLACK
6
CONTINUOUS
10
5.6237641732283468
20
-1.7833004724409449
11
5.6242050787401574
21
-1.7843648818897637
0
LINE
8
BLACK
6
CONTINUOUS
10
5.6242050787401574
20
-1.7843648818897637
11
5.6242618110236222
21
-1.7849409448818898
0
LINE
8
BLACK
6
CONTINUOUS
10
5.6242618110236222
20
-1.7849409448818898
11
5.6242618110236222
21
-2.3400590551181102
0
LINE
8
BLACK
6
CONTINUOUS
10
5.6242618110236222
20
-2.3400590551181102
11
5.6242050787401574
21
-2.3406351181102361
0
LINE
8
BLACK
6
CONTINUOUS
10
5.6242050787401574
20
-2.3406351181102361
11
5.6237641732283468
21
-2.3416995275590549
0
LINE
8
BLACK
6
CONTINUOUS
10
5.6237641732283468
20
-2.3416995275590549
11
5.6229495275590553
21
-2.3425141732283463
0
LINE
8
BLACK
6
CONTINUOUS
10
5.6229495275590553
20
-2.3425141732283463
11
5.6218851181102361
21
-2.3429550787401574
0
LINE
8
BLACK
6
CONTINUOUS
10
5.6218851181102361
20
-2.3429550787401574
11
5.6213090551181102
21
-2.3430118110236222
0
LINE
8
BLACK
6
CONTINUOUS
10
5.6213090551181102
20
-2.3430118110236222
11
5.0661909448818898
21
-2.3430118110236222
0
LINE
8
BLACK
6
CONTINUOUS
10
5.0661909448818898
20
-2.3430118110236222
11
5.0656148818897639
21
-2.3429550787401574
0
LINE
8
BLACK
6
CONTINUOUS
10
5.0656148818897639
20
-2.3429550787401574
11
5.0645504724409447
21
-2.3425141732283463
0
LINE
8
BLACK
6
CONTINUOUS
10
5.0645504724409447
20
-2.3425141732283463
11
5.0637358267716532
21
-2.3416995275590549
0
LINE
8
BLACK
6
CONTINUOUS
10
5.0637358267716532
20
-2.3416995275590549
11
5.0632949212598426
21
-2.3406351181102361
0
LINE
8
BLACK
6
CONTINUOUS
10
5.0632949212598426
20
-2.3406351181102361
11
5.0632381889763778
21
-2.3400590551181102
0
LINE
8
BLACK
6
CONTINUOUS
10
5.0632381889763778
20
-2.3400590551181102
11
5.0632381889763778
21
-1.7849409448818898
0
LINE
8
BLACK
6
CONTINUOUS
10
5.0632381889763778
20
-1.7849409448818898
11
5.0632949212598426
21
-1.7843648818897637
0
LINE
8
BLACK
6
CONTINUOUS
10
5.0632949212598426
20
-1.7843648818897637
11
5.0637358267716532
21
-1.7833004724409449
0
LINE
8
BLACK
6
CONTINUOUS
10
5.0637358267716532
20
-1.7833004724409449
11
5.0645504724409447
21
-1.7824858267716535
0
LINE
8
BLACK
6
CONTINUOUS
10
5.0645504724409447
20
-1.7824858267716535
11
5.0656148818897639
21
-1.7820449212598424
0
LINE
8
BLACK
6
CONTINUOUS
10
5.0656148818897639
20
-1.7820449212598424
11
5.0661909448818898
21
-1.781988188976378
0
LINE
8
BLACK
6
CONTINUOUS
10
5.0661909448818898
20
-1.781988188976378
11
5.6213090551181102
21
-1.781988188976378
0
LINE
8
BLACK
6
CONTINUOUS
10
5.6213090551181102
20
-1.781988188976378
11
5.6218851181102361
21
-1.7820449212598424
0
LINE
8
BLACK
6
CONTINUOUS
10
5.0691437007874018
20
-1.7878937007874016
11
5.0691437007874018
21
-2.3371062992125982
0
LINE
8
BLACK
6
CONTINUOUS
10
5.0691437007874018
20
-2.3371062992125982
11
5.6183562992125982
21
-2.3371062992125982
0
LINE
8
BLACK
6
CONTINUOUS
10
5.6183562992125982
20
-2.3371062992125982
11
5.6183562992125982
21
-1.7878937007874016
0
LINE
8
BLACK
6
CONTINUOUS
10
5.6183562992125982
20
-1.7878937007874016
11
5.0691437007874018
21
-1.7878937007874016
0
LINE
8
BLACK
6
CONTINUOUS
10
6.3718851181102361
20
-1.7820449212598424
11
6.3729495275590553
21
-1.7824858267716535
0
LINE
8
BLACK
6
CONTINUOUS
10
6.3729495275590553
20
-1.7824858267716535
11
6.3737641732283459
21
-1.7833004724409449
0
LINE
8
BLACK
6
CONTINUOUS
10
6.3737641732283459
20
-1.7833004724409449
11
6.3742050787401574
21
-1.7843648818897637
0
LINE
8
BLACK
6
CONTINUOUS
10
6.3742050787401574
20
-1.7843648818897637
11
6.3742618110236222
21
-1.7849409448818898
0
LINE
8
BLACK
6
CONTINUOUS
10
6.3742618110236222
20
-1.7849409448818898
11
6.3742618110236222
21
-2.3400590551181102
0
LINE
8
BLACK
6
CONTINUOUS
10
6.3742618110236222
20
-2.3400590551181102
11
6.3742050787401574
21
-2.3406351181102361
0
LINE
8
BLACK
6
CONTINUOUS
10
6.3742050787401574
20
-2.3406351181102361
11
6.3737641732283459
21
-2.3416995275590549
0
LINE
8
BLACK
6
CONTINUOUS
10
6.3737641732283459
20
-2.3416995275590549
11
6.3729495275590553
21
-2.3425141732283463
0
LINE
8
BLACK
6
CONTINUOUS
10
6.3729495275590553
20
-2.3425141732283463
11
6.3718851181102361
21
-2.3429550787401574
0
LINE
8
BLACK
6
CONTINUOUS
10
6.3718851181102361
20
-2.3429550787401574
11
6.3713090551181102
21
-2.3430118110236222
0
LINE
8
BLACK
6
CONTINUOUS
10
6.3713090551181102
20
-2.3430118110236222
11
5.8161909448818898
21
-2.3430118110236222
0
LINE
8
BLACK
6
CONTINUOUS
10
5.8161909448818898
20
-2.3430118110236222
11
5.8156148818897639
21
-2.3429550787401574
0
LINE
8
BLACK
6
CONTINUOUS
10
5.8156148818897639
20
-2.3429550787401574
11
5.8145504724409447
21
-2.3425141732283463
0
LINE
8
BLACK
6
CONTINUOUS
10
5.8145504724409447
20
-2.3425141732283463
11
5.8137358267716532
21
-2.3416995275590549
0
LINE
8
BLACK
6
CONTINUOUS
10
5.8137358267716532
20
-2.3416995275590549
11
5.8132949212598426
21
-2.3406351181102361
0
LINE
8
BLACK
6
CONTINUOUS
10
5.8132949212598426
20
-2.3406351181102361
11
5.8132381889763778
21
-2.3400590551181102
0
LINE
8
BLACK
6
CONTINUOUS
10
5.8132381889763778
20
-2.3400590551181102
11
5.8132381889763778
21
-1.7849409448818898
0
LINE
8
BLACK
6
CONTINUOUS
10
5.8132381889763778
20
-1.7849409448818898
11
5.8132949212598426
21
-1.7843648818897637
0
LINE
8
BLACK
6
CONTINUOUS
10
5.8132949212598426
20
-1.7843648818897637
11
5.8137358267716532
21
-1.7833004724409449
0
LINE
8
BLACK
6
CONTINUOUS
10
5.8137358267716532
20
-1.7833004724409449
11
5.8145504724409447
21
-1.7824858267716535
0
LINE
8
BLACK
6
CONTINUOUS
10
5.8145504724409447
20
-1.7824858267716535
11
5.8156148818897639
21
-1.7820449212598424
0
LINE
8
BLACK
6
CONTINUOUS
10
5.8156148818897639
20
-1.7820449212598424
11
5.8161909448818898
21
-1.781988188976378
0
LINE
8
BLACK
6
CONTINUOUS
10
5.8161909448818898
20
-1.781988188976378
11
6.3713090551181102
21
-1.781988188976378
0
LINE
8
BLACK
6
CONTINUOUS
10
6.3713090551181102
20
-1.781988188976378
11
6.3718851181102361
21
-1.7820449212598424
0
LINE
8
BLACK
6
CONTINUOUS
10
5.8191437007874018
20
-1.7878937007874016
11
5.8191437007874018
21
-2.3371062992125982
0
LINE
8
BLACK
6
CONTINUOUS
10
5.8191437007874018
20
-2.3371062992125982
11
6.3683562992125982
21
-2.3371062992125982
0
LINE
8
BLACK
6
CONTINUOUS
10
6.3683562992125982
20
-2.3371062992125982
11
6.3683562992125982
21
-1.7878937007874016
0
LINE
8
BLACK
6
CONTINUOUS
10
6.3683562992125982
20
-1.7878937007874016
11
5.8191437007874018
21
-1.7878937007874016
0
LINE
8
BLACK
6
CONTINUOUS
10
7.1218851181102361
20
-1.7820449212598424
11
7.1229495275590553
21
-1.7824858267716535
0
LINE
8
BLACK
6
CONTINUOUS
10
7.1229495275590553
20
-1.7824858267716535
11
7.1237641732283459
21
-1.7833004724409449
0
LINE
8
BLACK
6
CONTINUOUS
10
7.1237641732283459
20
-1.7833004724409449
11
7.1242050787401574
21
-1.7843648818897637
0
LINE
8
BLACK
6
CONTINUOUS
10
7.1242050787401574
20
-1.7843648818897637
11
7.1242618110236222
21
-1.7849409448818898
0
LINE
8
BLACK
6
CONTINUOUS
10
7.1242618110236222
20
-1.7849409448818898
11
7.1242618110236222
21
-2.3400590551181102
0
LINE
8
BLACK
6
CONTINUOUS
10
7.1242618110236222
20
-2.3400590551181102
11
7.1242050787401574
21
-2.3406351181102361
0
LINE
8
BLACK
6
CONTINUOUS
10
7.1242050787401574
20
-2.3406351181102361
11
7.1237641732283459
21
-2.3416995275590549
0
LINE
8
BLACK
6
CONTINUOUS
10
7.1237641732283459
20
-2.3416995275590549
11
7.1229495275590553
21
-2.3425141732283463
0
LINE
8
BLACK
6
CONTINUOUS
10
7.1229495275590553
20
-2.3425141732283463
11
7.1218851181102361
21
-2.3429550787401574
0
LINE
8
BLACK
6
CONTINUOUS
10
7.1218851181102361
20
-2.3429550787401574
11
7.1213090551181102
21
-2.3430118110236222
0
LINE
8
BLACK
6
CONTINUOUS
10
7.1213090551181102
20
-2.3430118110236222
11
6.5661909448818898
21
-2.3430118110236222
0
LINE
8
BLACK
6
CONTINUOUS
10
6.5661909448818898
20
-2.3430118110236222
11
6.5656148818897639
21
-2.3429550787401574
0
LINE
8
BLACK
6
CONTINUOUS
10
6.5656148818897639
20
-2.3429550787401574
11
6.5645504724409447
21
-2.3425141732283463
0
LINE
8
BLACK
6
CONTINUOUS
10
6.5645504724409447
20
-2.3425141732283463
11
6.5637358267716532
21
-2.3416995275590549
0
LINE
8
BLACK
6
CONTINUOUS
10
6.5637358267716532
20
-2.3416995275590549
11
6.5632949212598426
21
-2.3406351181102361
0
LINE
8
BLACK
6
CONTINUOUS
10
6.5632949212598426
20
-2.3406351181102361
11
6.5632381889763778
21
-2.3400590551181102
0
LINE
8
BLACK
6
CONTINUOUS
10
6.5632381889763778
20
-2.3400590551181102
11
6.5632381889763778
21
-1.7849409448818898
0
LINE
8
BLACK
6
CONTINUOUS
10
6.5632381889763778
20
-1.7849409448818898
11
6.5632949212598426
21
-1.7843648818897637
0
LINE
8
BLACK
6
CONTINUOUS
10
6.5632949212598426
20
-1.7843648818897637
11
6.5637358267716532
21
-1.7833004724409449
0
LINE
8
BLACK
6
CONTINUOUS
10
6.5637358267716532
20
-1.7833004724409449
11
6.5645504724409447
21
-1.7824858267716535
0
LINE
8
BLACK
6
CONTINUOUS
10
6.5645504724409447
20
-1.7824858267716535
11
6.5656148818897639
21
-1.7820449212598424
0
LINE
8
BLACK
6
CONTINUOUS
10
6.5656148818897639
20
-1.7820449212598424
11
6.5661909448818898
21
-1.781988188976378
0
LINE
8
BLACK
6
CONTINUOUS
10
6.5661909448818898
20
-1.781988188976378
11
7.1213090551181102
21
-1.781988188976378
0
LINE
8
BLACK
6
CONTINUOUS
10
7.1213090551181102
20
-1.781988188976378
11
7.1218851181102361
21
-1.7820449212598424
0
LINE
8
BLACK
6
CONTINUOUS
10
6.5691437007874018
20
-1.7878937007874016
11
6.5691437007874018
21
-2.3371062992125982
0
LINE
8
BLACK
6
CONTINUOUS
10
6.5691437007874018
20
-2.3371062992125982
11
7.1183562992125982
21
-2.3371062992125982
0
LINE
8
BLACK
6
CONTINUOUS
10
7.1183562992125982
20
-2.3371062992125982
11
7.1183562992125982
21
-1.7878937007874016
0
LINE
8
BLACK
6
CONTINUOUS
10
7.1183562992125982
20
-1.7878937007874016
11
6.5691437007874018
21
-1.7878937007874016
0
LINE
8
BLACK
6
CONTINUOUS
10
7.8718851181102361
20
-1.7820449212598424
11
7.8729495275590553
21
-1.7824858267716535
0
LINE
8
BLACK
6
CONTINUOUS
10
7.8729495275590553
20
-1.7824858267716535
11
7.8737641732283459
21
-1.7833004724409449
0
LINE
8
BLACK
6
CONTINUOUS
10
7.8737641732283459
20
-1.7833004724409449
11
7.8742050787401574
21
-1.7843648818897637
0
LINE
8
BLACK
6
CONTINUOUS
10
7.8742050787401574
20
-1.7843648818897637
11
7.8742618110236222
21
-1.7849409448818898
0
LINE
8
BLACK
6
CONTINUOUS
10
7.8742618110236222
20
-1.7849409448818898
11
7.8742618110236222
21
-2.3400590551181102
0
LINE
8
BLACK
6
CONTINUOUS
10
7.8742618110236222
20
-2.3400590551181102
11
7.8742050787401574
21
-2.3406351181102361
0
LINE
8
BLACK
6
CONTINUOUS
10
7.8742050787401574
20
-2.3406351181102361
11
7.8737641732283459
21
-2.3416995275590549
0
LINE
8
BLACK
6
CONTINUOUS
10
7.8737641732283459
20
-2.3416995275590549
11
7.8729495275590553
21
-2.3425141732283463
0
LINE
8
BLACK
6
CONTINUOUS
10
7.8729495275590553
20
-2.3425141732283463
11
7.8718851181102361
21
-2.3429550787401574
0
LINE
8
BLACK
6
CONTINUOUS
10
7.8718851181102361
20
-2.3429550787401574
11
7.8713090551181102
21
-2.3430118110236222
0
LINE
8
BLACK
6
CONTINUOUS
10
7.8713090551181102
20
-2.3430118110236222
11
7.3161909448818898
21
-2.3430118110236222
0
LINE
8
BLACK
6
CONTINUOUS
10
7.3161909448818898
20
-2.3430118110236222
11
7.3156148818897639
21
-2.3429550787401574
0
LINE
8
BLACK
6
CONTINUOUS
10
7.3156148818897639
20
-2.3429550787401574
11
7.3145504724409447
21
-2.3425141732283463
0
LINE
8
BLACK
6
CONTINUOUS
10
7.3145504724409447
20
-2.3425141732283463
11
7.3137358267716532
21
-2.3416995275590549
0
LINE
8
BLACK
6
CONTINUOUS
10
7.3137358267716532
20
-2.3416995275590549
11
7.3132949212598426
21
-2.3406351181102361
0
LINE
8
BLACK
6
CONTINUOUS
10
7.3132949212598426
20
-2.3406351181102361
11
7.3132381889763778
21
-2.3400590551181102
0
LINE
8
BLACK
6
CONTINUOUS
10
7.3132381889763778
20
-2.3400590551181102
11
7.3132381889763778
21
-1.7849409448818898
0
LINE
8
BLACK
6
CONTINUOUS
10
7.3132381889763778
20
-1.7849409448818898
11
7.3132949212598426
21
-1.7843648818897637
0
LINE
8
BLACK
6
CONTINUOUS
10
7.3132949212598426
20
-1.7843648818897637
11
7.3137358267716532
21
-1.7833004724409449
0
LINE
8
BLACK
6
CONTINUOUS
10
7.3137358267716532
20
-1.7833004724409449
11
7.3145504724409447
21
-1.7824858267716535
0
LINE
8
BLACK
6
CONTINUOUS
10
7.3145504724409447
20
-1.7824858267716535
11
7.3156148818897639
21
-1.7820449212598424
0
LINE
8
BLACK
6
CONTINUOUS
10
7.3156148818897639
20
-1.7820449212598424
11
7.3161909448818898
21
-1.781988188976378
0
LINE
8
BLACK
6
CONTINUOUS
10
7.3161909448818898
20
-1.781988188976378
11
7.8713090551181102
21
-1.781988188976378
0
LINE
8
BLACK
6
CONTINUOUS
10
7.8713090551181102
20
-1.781988188976378
11
7.8718851181102361
21
-1.7820449212598424
0
LINE
8
BLACK
6
CONTINUOUS
10
7.3191437007874018
20
-1.7878937007874016
11
7.3191437007874018
21
-2.3371062992125982
0
LINE
8
BLACK
6
CONTINUOUS
10
7.3191437007874018
20
-2.3371062992125982
11
7.8683562992125982
21
-2.3371062992125982
0
LINE
8
BLACK
6
CONTINUOUS
10
7.8683562992125982
20
-2.3371062992125982
11
7.8683562992125982
21
-1.7878937007874016
0
LINE
8
BLACK
6
CONTINUOUS
10
7.8683562992125982
20
-1.7878937007874016
11
7.3191437007874018
21
-1.7878937007874016
0
LINE
8
BLACK
6
CONTINUOUS
10
8.6218851181102352
20
-1.7820449212598424
11
8.6229495275590544
21
-1.7824858267716535
0
LINE
8
BLACK
6
CONTINUOUS
10
8.6229495275590544
20
-1.7824858267716535
11
8.6237641732283468
21
-1.7833004724409449
0
LINE
8
BLACK
6
CONTINUOUS
10
8.6237641732283468
20
-1.7833004724409449
11
8.6242050787401574
21
-1.7843648818897637
0
LINE
8
BLACK
6
CONTINUOUS
10
8.6242050787401574
20
-1.7843648818897637
11
8.6242618110236222
21
-1.7849409448818898
0
LINE
8
BLACK
6
CONTINUOUS
10
8.6242618110236222
20
-1.7849409448818898
11
8.6242618110236222
21
-2.3400590551181102
0
LINE
8
BLACK
6
CONTINUOUS
10
8.6242618110236222
20
-2.3400590551181102
11
8.6242050787401574
21
-2.3406351181102361
0
LINE
8
BLACK
6
CONTINUOUS
10
8.6242050787401574
20
-2.3406351181102361
11
8.6237641732283468
21
-2.3416995275590549
0
LINE
8
BLACK
6
CONTINUOUS
10
8.6237641732283468
20
-2.3416995275590549
11
8.6229495275590544
21
-2.3425141732283463
0
LINE
8
BLACK
6
CONTINUOUS
10
8.6229495275590544
20
-2.3425141732283463
11
8.6218851181102352
21
-2.3429550787401574
0
LINE
8
BLACK
6
CONTINUOUS
10
8.6218851181102352
20
-2.3429550787401574
11
8.6213090551181093
21
-2.3430118110236222
0
LINE
8
BLACK
6
CONTINUOUS
10
8.6213090551181093
20
-2.3430118110236222
11
8.0661909448818889
21
-2.3430118110236222
0
LINE
8
BLACK
6
CONTINUOUS
10
8.0661909448818889
20
-2.3430118110236222
11
8.0656148818897631
21
-2.3429550787401574
0
LINE
8
BLACK
6
CONTINUOUS
10
8.0656148818897631
20
-2.3429550787401574
11
8.0645504724409456
21
-2.3425141732283463
0
LINE
8
BLACK
6
CONTINUOUS
10
8.0645504724409456
20
-2.3425141732283463
11
8.0637358267716532
21
-2.3416995275590549
0
LINE
8
BLACK
6
CONTINUOUS
10
8.0637358267716532
20
-2.3416995275590549
11
8.0632949212598426
21
-2.3406351181102361
0
LINE
8
BLACK
6
CONTINUOUS
10
8.0632949212598426
20
-2.3406351181102361
11
8.0632381889763778
21
-2.3400590551181102
0
LINE
8
BLACK
6
CONTINUOUS
10
8.0632381889763778
20
-2.3400590551181102
11
8.0632381889763778
21
-1.7849409448818898
0
LINE
8
BLACK
6
CONTINUOUS
10
8.0632381889763778
20
-1.7849409448818898
11
8.0632949212598426
21
-1.7843648818897637
0
LINE
8
BLACK
6
CONTINUOUS
10
8.0632949212598426
20
-1.7843648818897637
11
8.0637358267716532
21
-1.7833004724409449
0
LINE
8
BLACK
6
CONTINUOUS
10
8.0637358267716532
20
-1.7833004724409449
11
8.0645504724409456
21
-1.7824858267716535
0
LINE
8
BLACK
6
CONTINUOUS
10
8.0645504724409456
20
-1.7824858267716535
11
8.0656148818897631
21
-1.7820449212598424
0
LINE
8
BLACK
6
CONTINUOUS
10
8.0656148818897631
20
-1.7820449212598424
11
8.0661909448818889
21
-1.781988188976378
0
LINE
8
BLACK
6
CONTINUOUS
10
8.0661909448818889
20
-1.781988188976378
11
8.6213090551181093
21
-1.781988188976378
0
LINE
8
BLACK
6
CONTINUOUS
10
8.6213090551181093
20
-1.781988188976378
11
8.6218851181102352
21
-1.7820449212598424
0
LINE
8
BLACK
6
CONTINUOUS
10
8.0691437007874018
20
-1.7878937007874016
11
8.0691437007874018
21
-2.3371062992125982
0
LINE
8
BLACK
6
CONTINUOUS
10
8.0691437007874018
20
-2.3371062992125982
11
8.6183562992125982
21
-2.3371062992125982
0
LINE
8
BLACK
6
CONTINUOUS
10
8.6183562992125982
20
-2.3371062992125982
11
8.6183562992125982
21
-1.7878937007874016
0
LINE
8
BLACK
6
CONTINUOUS
10
8.6183562992125982
20
-1.7878937007874016
11
8.0691437007874018
21
-1.7878937007874016
0
LINE
8
BLACK
6
CONTINUOUS
10
9.3718851181102352
20
-1.7820449212598424
11
9.3729495275590544
21
-1.7824858267716535
0
LINE
8
BLACK
6
CONTINUOUS
10
9.3729495275590544
20
-1.7824858267716535
11
9.3737641732283468
21
-1.7833004724409449
0
LINE
8
BLACK
6
CONTINUOUS
10
9.3737641732283468
20
-1.7833004724409449
11
9.3742050787401574
21
-1.7843648818897637
0
LINE
8
BLACK
6
CONTINUOUS
10
9.3742050787401574
20
-1.7843648818897637
11
9.3742618110236222
21
-1.7849409448818898
0
LINE
8
BLACK
6
CONTINUOUS
10
9.3742618110236222
20
-1.7849409448818898
11
9.3742618110236222
21
-2.3400590551181102
0
LINE
8
BLACK
6
CONTINUOUS
10
9.3742618110236222
20
-2.3400590551181102
11
9.3742050787401574
21
-2.3406351181102361
0
LINE
8
BLACK
6
CONTINUOUS
10
9.3742050787401574
20
-2.3406351181102361
11
9.3737641732283468
21
-2.3416995275590549
0
LINE
8
BLACK
6
CONTINUOUS
10
9.3737641732283468
20
-2.3416995275590549
11
9.3729495275590544
21
-2.3425141732283463
0
LINE
8
BLACK
6
CONTINUOUS
10
9.3729495275590544
20
-2.3425141732283463
11
9.3718851181102352
21
-2.3429550787401574
0
LINE
8
BLACK
6
CONTINUOUS
10
9.3718851181102352
20
-2.3429550787401574
11
9.3713090551181093
21
-2.3430118110236222
0
LINE
8
BLACK
6
CONTINUOUS
10
9.3713090551181093
20
-2.3430118110236222
11
8.8161909448818889
21
-2.3430118110236222
0
LINE
8
BLACK
6
CONTINUOUS
10
8.8161909448818889
20
-2.3430118110236222
11
8.8156148818897631
21
-2.3429550787401574
0
LINE
8
BLACK
6
CONTINUOUS
10
8.8156148818897631
20
-2.3429550787401574
11
8.8145504724409438
21
-2.3425141732283463
0
LINE
8
BLACK
6
CONTINUOUS
10
8.8145504724409438
20
-2.3425141732283463
11
8.8137358267716532
21
-2.3416995275590549
0
LINE
8
BLACK
6
CONTINUOUS
10
8.8137358267716532
20
-2.3416995275590549
11
8.8132949212598426
21
-2.3406351181102361
0
LINE
8
BLACK
6
CONTINUOUS
10
8.8132949212598426
20
-2.3406351181102361
11
8.8132381889763778
21
-2.3400590551181102
0
LINE
8
BLACK
6
CONTINUOUS
10
8.8132381889763778
20
-2.3400590551181102
11
8.8132381889763778
21
-1.7849409448818898
0
LINE
8
BLACK
6
CONTINUOUS
10
8.8132381889763778
20
-1.7849409448818898
11
8.8132949212598426
21
-1.7843648818897637
0
LINE
8
BLACK
6
CONTINUOUS
10
8.8132949212598426
20
-1.7843648818897637
11
8.8137358267716532
21
-1.7833004724409449
0
LINE
8
BLACK
6
CONTINUOUS
10
8.8137358267716532
20
-1.7833004724409449
11
8.8145504724409438
21
-1.7824858267716535
0
LINE
8
BLACK
6
CONTINUOUS
10
8.8145504724409438
20
-1.7824858267716535
11
8.8156148818897631
21
-1.7820449212598424
0
LINE
8
BLACK
6
CONTINUOUS
10
8.8156148818897631
20
-1.7820449212598424
11
8.8161909448818889
21
-1.781988188976378
0
LINE
8
BLACK
6
CONTINUOUS
10
8.8161909448818889
20
-1.781988188976378
11
9.3713090551181093
21
-1.781988188976378
0
LINE
8
BLACK
6
CONTINUOUS
10
9.3713090551181093
20
-1.781988188976378
11
9.3718851181102352
21
-1.7820449212598424
0
LINE
8
BLACK
6
CONTINUOUS
10
8.8191437007874018
20
-1.7878937007874016
11
8.8191437007874018
21
-2.3371062992125982
0
LINE
8
BLACK
6
CONTINUOUS
10
8.8191437007874018
20
-2.3371062992125982
11
9.3683562992125982
21
-2.3371062992125982
0
LINE
8
BLACK
6
CONTINUOUS
10
9.3683562992125982
20
-2.3371062992125982
11
9.3683562992125982
21
-1.7878937007874016
0
LINE
8
BLACK
6
CONTINUOUS
10
9.3683562992125982
20
-1.7878937007874016
11
8.8191437007874018
21
-1.7878937007874016
0
LINE
8
BLACK
6
CONTINUOUS
10
4.8718851181102361
20
-1.0320449212598426
11
4.8729495275590553
21
-1.0324858267716535
0
LINE
8
BLACK
6
CONTINUOUS
10
4.8729495275590553
20
-1.0324858267716535
11
4.8737641732283468
21
-1.0333004724409449
0
LINE
8
BLACK
6
CONTINUOUS
10
4.8737641732283468
20
-1.0333004724409449
11
4.8742050787401574
21
-1.0343648818897637
0
LINE
8
BLACK
6
CONTINUOUS
10
4.8742050787401574
20
-1.0343648818897637
11
4.8742618110236222
21
-1.0349409448818898
0
LINE
8
BLACK
6
CONTINUOUS
10
4.8742618110236222
20
-1.0349409448818898
11
4.8742618110236222
21
-1.5900590551181102
0
LINE
8
BLACK
6
CONTINUOUS
10
4.8742618110236222
20
-1.5900590551181102
11
4.8742050787401574
21
-1.5906351181102363
0
LINE
8
BLACK
6
CONTINUOUS
10
4.8742050787401574
20
-1.5906351181102363
11
4.8737641732283468
21
-1.5916995275590551
0
LINE
8
BLACK
6
CONTINUOUS
10
4.8737641732283468
20
-1.5916995275590551
11
4.8729495275590553
21
-1.5925141732283463
0
LINE
8
BLACK
6
CONTINUOUS
10
4.8729495275590553
20
-1.5925141732283463
11
4.8718851181102361
21
-1.5929550787401574
0
LINE
8
BLACK
6
CONTINUOUS
10
4.8718851181102361
20
-1.5929550787401574
11
4.8713090551181102
21
-1.593011811023622
0
LINE
8
BLACK
6
CONTINUOUS
10
4.8713090551181102
20
-1.593011811023622
11
4.3161909448818898
21
-1.593011811023622
0
LINE
8
BLACK
6
CONTINUOUS
10
4.3161909448818898
20
-1.593011811023622
11
4.3156148818897639
21
-1.5929550787401574
0
LINE
8
BLACK
6
CONTINUOUS
10
4.3156148818897639
20
-1.5929550787401574
11
4.3145504724409447
21
-1.5925141732283463
0
LINE
8
BLACK
6
CONTINUOUS
10
4.3145504724409447
20
-1.5925141732283463
11
4.3137358267716532
21
-1.5916995275590551
0
LINE
8
BLACK
6
CONTINUOUS
10
4.3137358267716532
20
-1.5916995275590551
11
4.3132949212598426
21
-1.5906351181102363
0
LINE
8
BLACK
6
CONTINUOUS
10
4.3132949212598426
20
-1.5906351181102363
11
4.3132381889763778
21
-1.5900590551181102
0
LINE
8
BLACK
6
CONTINUOUS
10
4.3132381889763778
20
-1.5900590551181102
11
4.3132381889763778
21
-1.0349409448818898
0
LINE
8
BLACK
6
CONTINUOUS
10
4.3132381889763778
20
-1.0349409448818898
11
4.3132949212598426
21
-1.0343648818897637
0
LINE
8
BLACK
6
CONTINUOUS
10
4.3132949212598426
20
-1.0343648818897637
11
4.3137358267716532
21
-1.0333004724409449
0
LINE
8
BLACK
6
CONTINUOUS
10
4.3137358267716532
20
-1.0333004724409449
11
4.3145504724409447
21
-1.0324858267716535
0
LINE
8
BLACK
6
CONTINUOUS
10
4.3145504724409447
20
-1.0324858267716535
11
4.3156148818897639
21
-1.0320449212598426
0
LINE
8
BLACK
6
CONTINUOUS
10
4.3156148818897639
20
-1.0320449212598426
11
4.3161909448818898
21
-1.031988188976378
0
LINE
8
BLACK
6
CONTINUOUS
10
4.3161909448818898
20
-1.031988188976378
11
4.8713090551181102
21
-1.031988188976378
0
LINE
8
BLACK
6
CONTINUOUS
10
4.8713090551181102
20
-1.031988188976378
11
4.8718851181102361
21
-1.0320449212598426
0
LINE
8
BLACK
6
CONTINUOUS
10
4.3191437007874018
20
-1.0378937007874016
11
4.3191437007874018
21
-1.5871062992125984
0
LINE
8
BLACK
6
CONTINUOUS
10
4.3191437007874018
20
-1.5871062992125984
11
4.8683562992125982
21
-1.5871062992125984
0
LINE
8
BLACK
6
CONTINUOUS
10
4.8683562992125982
20
-1.5871062992125984
11
4.8683562992125982
21
-1.0378937007874016
0
LINE
8
BLACK
6
CONTINUOUS
10
4.8683562992125982
20
-1.0378937007874016
11
4.3191437007874018
21
-1.0378937007874016
0
LINE
8
BLACK
6
CONTINUOUS
10
5.6218851181102361
20
-1.0320449212598426
11
5.6229495275590553
21
-1.0324858267716535
0
LINE
8
BLACK
6
CONTINUOUS
10
5.6229495275590553
20
-1.0324858267716535
11
5.6237641732283468
21
-1.0333004724409449
0
LINE
8
BLACK
6
CONTINUOUS
10
5.6237641732283468
20
-1.0333004724409449
11
5.6242050787401574
21
-1.0343648818897637
0
LINE
8
BLACK
6
CONTINUOUS
10
5.6242050787401574
20
-1.0343648818897637
11
5.6242618110236222
21
-1.0349409448818898
0
LINE
8
BLACK
6
CONTINUOUS
10
5.6242618110236222
20
-1.0349409448818898
11
5.6242618110236222
21
-1.5900590551181102
0
LINE
8
BLACK
6
CONTINUOUS
10
5.6242618110236222
20
-1.5900590551181102
11
5.6242050787401574
21
-1.5906351181102363
0
LINE
8
BLACK
6
CONTINUOUS
10
5.6242050787401574
20
-1.5906351181102363
11
5.6237641732283468
21
-1.5916995275590551
0
LINE
8
BLACK
6
CONTINUOUS
10
5.6237641732283468
20
-1.5916995275590551
11
5.6229495275590553
21
-1.5925141732283463
0
LINE
8
BLACK
6
CONTINUOUS
10
5.6229495275590553
20
-1.5925141732283463
11
5.6218851181102361
21
-1.5929550787401574
0
LINE
8
BLACK
6
CONTINUOUS
10
5.6218851181102361
20
-1.5929550787401574
11
5.6213090551181102
21
-1.593011811023622
0
LINE
8
BLACK
6
CONTINUOUS
10
5.6213090551181102
20
-1.593011811023622
11
5.0661909448818898
21
-1.593011811023622
0
LINE
8
BLACK
6
CONTINUOUS
10
5.0661909448818898
20
-1.593011811023622
11
5.0656148818897639
21
-1.5929550787401574
0
LINE
8
BLACK
6
CONTINUOUS
10
5.0656148818897639
20
-1.5929550787401574
11
5.0645504724409447
21
-1.5925141732283463
0
LINE
8
BLACK
6
CONTINUOUS
10
5.0645504724409447
20
-1.5925141732283463
11
5.0637358267716532
21
-1.5916995275590551
0
LINE
8
BLACK
6
CONTINUOUS
10
5.0637358267716532
20
-1.5916995275590551
11
5.0632949212598426
21
-1.5906351181102363
0
LINE
8
BLACK
6
CONTINUOUS
10
5.0632949212598426
20
-1.5906351181102363
11
5.0632381889763778
21
-1.5900590551181102
0
LINE
8
BLACK
6
CONTINUOUS
10
5.0632381889763778
20
-1.5900590551181102
11
5.0632381889763778
21
-1.0349409448818898
0
LINE
8
BLACK
6
CONTINUOUS
10
5.0632381889763778
20
-1.0349409448818898
11
5.0632949212598426
21
-1.0343648818897637
0
LINE
8
BLACK
6
CONTINUOUS
10
5.0632949212598426
20
-1.0343648818897637
11
5.0637358267716532
21
-1.0333004724409449
0
LINE
8
BLACK
6
CONTINUOUS
10
5.0637358267716532
20
-1.0333004724409449
11
5.0645504724409447
21
-1.0324858267716535
0
LINE
8
BLACK
6
CONTINUOUS
10
5.0645504724409447
20
-1.0324858267716535
11
5.0656148818897639
21
-1.0320449212598426
0
LINE
8
BLACK
6
CONTINUOUS
10
5.0656148818897639
20
-1.0320449212598426
11
5.0661909448818898
21
-1.031988188976378
0
LINE
8
BLACK
6
CONTINUOUS
10
5.0661909448818898
20
-1.031988188976378
11
5.6213090551181102
21
-1.031988188976378
0
LINE
8
BLACK
6
CONTINUOUS
10
5.6213090551181102
20
-1.031988188976378
11
5.6218851181102361
21
-1.0320449212598426
0
LINE
8
BLACK
6
CONTINUOUS
10
5.0691437007874018
20
-1.0378937007874016
11
5.0691437007874018
21
-1.5871062992125984
0
LINE
8
BLACK
6
CONTINUOUS
10
5.0691437007874018
20
-1.5871062992125984
11
5.6183562992125982
21
-1.5871062992125984
0
LINE
8
BLACK
6
CONTINUOUS
10
5.6183562992125982
20
-1.5871062992125984
11
5.6183562992125982
21
-1.0378937007874016
0
LINE
8
BLACK
6
CONTINUOUS
10
5.6183562992125982
20
-1.0378937007874016
11
5.0691437007874018
21
-1.0378937007874016
0
LINE
8
BLACK
6
CONTINUOUS
10
6.3718851181102361
20
-1.0320449212598426
11
6.3729495275590553
21
-1.0324858267716535
0
LINE
8
BLACK
6
CONTINUOUS
10
6.3729495275590553
20
-1.0324858267716535
11
6.3737641732283459
21
-1.0333004724409449
0
LINE
8
BLACK
6
CONTINUOUS
10
6.3737641732283459
20
-1.0333004724409449
11
6.3742050787401574
21
-1.0343648818897637
0
LINE
8
BLACK
6
CONTINUOUS
10
6.3742050787401574
20
-1.0343648818897637
11
6.3742618110236222
21
-1.0349409448818898
0
LINE
8
BLACK
6
CONTINUOUS
10
6.3742618110236222
20
-1.0349409448818898
11
6.3742618110236222
21
-1.5900590551181102
0
LINE
8
BLACK
6
CONTINUOUS
10
6.3742618110236222
20
-1.5900590551181102
11
6.3742050787401574
21
-1.5906351181102363
0
LINE
8
BLACK
6
CONTINUOUS
10
6.3742050787401574
20
-1.5906351181102363
11
6.3737641732283459
21
-1.5916995275590551
0
LINE
8
BLACK
6
CONTINUOUS
10
6.3737641732283459
20
-1.5916995275590551
11
6.3729495275590553
21
-1.5925141732283463
0
LINE
8
BLACK
6
CONTINUOUS
10
6.3729495275590553
20
-1.5925141732283463
11
6.3718851181102361
21
-1.5929550787401574
0
LINE
8
BLACK
6
CONTINUOUS
10
6.3718851181102361
20
-1.5929550787401574
11
6.3713090551181102
21
-1.593011811023622
0
LINE
8
BLACK
6
CONTINUOUS
10
6.3713090551181102
20
-1.593011811023622
11
5.8161909448818898
21
-1.593011811023622
0
LINE
8
BLACK
6
CONTINUOUS
10
5.8161909448818898
20
-1.593011811023622
11
5.8156148818897639
21
-1.5929550787401574
0
LINE
8
BLACK
6
CONTINUOUS
10
5.8156148818897639
20
-1.5929550787401574
11
5.8145504724409447
21
-1.5925141732283463
0
LINE
8
BLACK
6
CONTINUOUS
10
5.8145504724409447
20
-1.5925141732283463
11
5.8137358267716532
21
-1.5916995275590551
0
LINE
8
BLACK
6
CONTINUOUS
10
5.8137358267716532
20
-1.5916995275590551
11
5.8132949212598426
21
-1.5906351181102363
0
LINE
8
BLACK
6
CONTINUOUS
10
5.8132949212598426
20
-1.5906351181102363
11
5.8132381889763778
21
-1.5900590551181102
0
LINE
8
BLACK
6
CONTINUOUS
10
5.8132381889763778
20
-1.5900590551181102
11
5.8132381889763778
21
-1.0349409448818898
0
LINE
8
BLACK
6
CONTINUOUS
10
5.8132381889763778
20
-1.0349409448818898
11
5.8132949212598426
21
-1.0343648818897637
0
LINE
8
BLACK
6
CONTINUOUS
10
5.8132949212598426
20
-1.0343648818897637
11
5.8137358267716532
21
-1.0333004724409449
0
LINE
8
BLACK
6
CONTINUOUS
10
5.8137358267716532
20
-1.0333004724409449
11
5.8145504724409447
21
-1.0324858267716535
0
LINE
8
BLACK
6
CONTINUOUS
10
5.8145504724409447
20
-1.0324858267716535
11
5.8156148818897639
21
-1.0320449212598426
0
LINE
8
BLACK
6
CONTINUOUS
10
5.8156148818897639
20
-1.0320449212598426
11
5.8161909448818898
21
-1.031988188976378
0
LINE
8
BLACK
6
CONTINUOUS
10
5.8161909448818898
20
-1.031988188976378
11
6.3713090551181102
21
-1.031988188976378
0
LINE
8
BLACK
6
CONTINUOUS
10
6.3713090551181102
20
-1.031988188976378
11
6.3718851181102361
21
-1.0320449212598426
0
LINE
8
BLACK
6
CONTINUOUS
10
5.8191437007874018
20
-1.0378937007874016
11
5.8191437007874018
21
-1.5871062992125984
0
LINE
8
BLACK
6
CONTINUOUS
10
5.8191437007874018
20
-1.5871062992125984
11
6.3683562992125982
21
-1.5871062992125984
0
LINE
8
BLACK
6
CONTINUOUS
10
6.3683562992125982
20
-1.5871062992125984
11
6.3683562992125982
21
-1.0378937007874016
0
LINE
8
BLACK
6
CONTINUOUS
10
6.3683562992125982
20
-1.0378937007874016
11
5.8191437007874018
21
-1.0378937007874016
0
LINE
8
BLACK
6
CONTINUOUS
10
7.1218851181102361
20
-1.0320449212598426
11
7.1229495275590553
21
-1.0324858267716535
0
LINE
8
BLACK
6
CONTINUOUS
10
7.1229495275590553
20
-1.0324858267716535
11
7.1237641732283459
21
-1.0333004724409449
0
LINE
8
BLACK
6
CONTINUOUS
10
7.1237641732283459
20
-1.0333004724409449
11
7.1242050787401574
21
-1.0343648818897637
0
LINE
8
BLACK
6
CONTINUOUS
10
7.1242050787401574
20
-1.0343648818897637
11
7.1242618110236222
21
-1.0349409448818898
0
LINE
8
BLACK
6
CONTINUOUS
10
7.1242618110236222
20
-1.0349409448818898
11
7.1242618110236222
21
-1.5900590551181102
0
LINE
8
BLACK
6
CONTINUOUS
10
7.1242618110236222
20
-1.5900590551181102
11
7.1242050787401574
21
-1.5906351181102363
0
LINE
8
BLACK
6
CONTINUOUS
10
7.1242050787401574
20
-1.5906351181102363
11
7.1237641732283459
21
-1.5916995275590551
0
LINE
8
BLACK
6
CONTINUOUS
10
7.1237641732283459
20
-1.5916995275590551
11
7.1229495275590553
21
-1.5925141732283463
0
LINE
8
BLACK
6
CONTINUOUS
10
7.1229495275590553
20
-1.5925141732283463
11
7.1218851181102361
21
-1.5929550787401574
0
LINE
8
BLACK
6
CONTINUOUS
10
7.1218851181102361
20
-1.5929550787401574
11
7.1213090551181102
21
-1.593011811023622
0
LINE
8
BLACK
6
CONTINUOUS
10
7.1213090551181102
20
-1.593011811023622
11
6.5661909448818898
21
-1.593011811023622
0
LINE
8
BLACK
6
CONTINUOUS
10
6.5661909448818898
20
-1.593011811023622
11
6.5656148818897639
21
-1.5929550787401574
0
LINE
8
BLACK
6
CONTINUOUS
10
6.5656148818897639
20
-1.5929550787401574
11
6.5645504724409447
21
-1.5925141732283463
0
LINE
8
BLACK
6
CONTINUOUS
10
6.5645504724409447
20
-1.5925141732283463
11
6.5637358267716532
21
-1.5916995275590551
0
LINE
8
BLACK
6
CONTINUOUS
10
6.5637358267716532
20
-1.5916995275590551
11
6.5632949212598426
21
-1.5906351181102363
0
LINE
8
BLACK
6
CONTINUOUS
10
6.5632949212598426
20
-1.5906351181102363
11
6.5632381889763778
21
-1.5900590551181102
0
LINE
8
BLACK
6
CONTINUOUS
10
6.5632381889763778
20
-1.5900590551181102
11
6.5632381889763778
21
-1.0349409448818898
0
LINE
8
BLACK
6
CONTINUOUS
10
6.5632381889763778
20
-1.0349409448818898
11
6.5632949212598426
21
-1.0343648818897637
0
LINE
8
BLACK
6
CONTINUOUS
10
6.5632949212598426
20
-1.0343648818897637
11
6.5637358267716532
21
-1.0333004724409449
0
LINE
8
BLACK
6
CONTINUOUS
10
6.5637358267716532
20
-1.0333004724409449
11
6.5645504724409447
21
-1.0324858267716535
0
LINE
8
BLACK
6
CONTINUOUS
10
6.5645504724409447
20
-1.0324858267716535
11
6.5656148818897639
21
-1.0320449212598426
0
LINE
8
BLACK
6
CONTINUOUS
10
6.5656148818897639
20
-1.0320449212598426
11
6.5661909448818898
21
-1.031988188976378
0
LINE
8
BLACK
6
CONTINUOUS
10
6.5661909448818898
20
-1.031988188976378
11
7.1213090551181102
21
-1.031988188976378
0
LINE
8
BLACK
6
CONTINUOUS
10
7.1213090551181102
20
-1.031988188976378
11
7.1218851181102361
21
-1.0320449212598426
0
LINE
8
BLACK
6
CONTINUOUS
10
6.5691437007874018
20
-1.0378937007874016
11
6.5691437007874018
21
-1.5871062992125984
0
LINE
8
BLACK
6
CONTINUOUS
10
6.5691437007874018
20
-1.5871062992125984
11
7.1183562992125982
21
-1.5871062992125984
0
LINE
8
BLACK
6
CONTINUOUS
10
7.1183562992125982
20
-1.5871062992125984
11
7.1183562992125982
21
-1.0378937007874016
0
LINE
8
BLACK
6
CONTINUOUS
10
7.1183562992125982
20
-1.0378937007874016
11
6.5691437007874018
21
-1.0378937007874016
0
LINE
8
BLACK
6
CONTINUOUS
10
7.8718851181102361
20
-1.0320449212598426
11
7.8729495275590553
21
-1.0324858267716535
0
LINE
8
BLACK
6
CONTINUOUS
10
7.8729495275590553
20
-1.0324858267716535
11
7.8737641732283459
21
-1.0333004724409449
0
LINE
8
BLACK
6
CONTINUOUS
10
7.8737641732283459
20
-1.0333004724409449
11
7.8742050787401574
21
-1.0343648818897637
0
LINE
8
BLACK
6
CONTINUOUS
10
7.8742050787401574
20
-1.0343648818897637
11
7.8742618110236222
21
-1.0349409448818898
0
LINE
8
BLACK
6
CONTINUOUS
10
7.8742618110236222
20
-1.0349409448818898
11
7.8742618110236222
21
-1.5900590551181102
0
LINE
8
BLACK
6
CONTINUOUS
10
7.8742618110236222
20
-1.5900590551181102
11
7.8742050787401574
21
-1.5906351181102363
0
LINE
8
BLACK
6
CONTINUOUS
10
7.8742050787401574
20
-1.5906351181102363
11
7.8737641732283459
21
-1.5916995275590551
0
LINE
8
BLACK
6
CONTINUOUS
10
7.8737641732283459
20
-1.5916995275590551
11
7.8729495275590553
21
-1.5925141732283463
0
LINE
8
BLACK
6
CONTINUOUS
10
7.8729495275590553
20
-1.5925141732283463
11
7.8718851181102361
21
-1.5929550787401574
0
LINE
8
BLACK
6
CONTINUOUS
10
7.8718851181102361
20
-1.5929550787401574
11
7.8713090551181102
21
-1.593011811023622
0
LINE
8
BLACK
6
CONTINUOUS
10
7.8713090551181102
20
-1.593011811023622
11
7.3161909448818898
21
-1.593011811023622
0
LINE
8
BLACK
6
CONTINUOUS
10
7.3161909448818898
20
-1.593011811023622
11
7.3156148818897639
21
-1.5929550787401574
0
LINE
8
BLACK
6
CONTINUOUS
10
7.3156148818897639
20
-1.5929550787401574
11
7.3145504724409447
21
-1.5925141732283463
0
LINE
8
BLACK
6
CONTINUOUS
10
7.3145504724409447
20
-1.5925141732283463
11
7.3137358267716532
21
-1.5916995275590551
0
LINE
8
BLACK
6
CONTINUOUS
10
7.3137358267716532
20
-1.5916995275590551
11
7.3132949212598426
21
-1.5906351181102363
0
LINE
8
BLACK
6
CONTINUOUS
10
7.3132949212598426
20
-1.5906351181102363
11
7.3132381889763778
21
-1.5900590551181102
0
LINE
8
BLACK
6
CONTINUOUS
10
7.3132381889763778
20
-1.5900590551181102
11
7.3132381889763778
21
-1.0349409448818898
0
LINE
8
BLACK
6
CONTINUOUS
10
7.3132381889763778
20
-1.0349409448818898
11
7.3132949212598426
21
-1.0343648818897637
0
LINE
8
BLACK
6
CONTINUOUS
10
7.3132949212598426
20
-1.0343648818897637
11
7.3137358267716532
21
-1.0333004724409449
0
LINE
8
BLACK
6
CONTINUOUS
10
7.3137358267716532
20
-1.0333004724409449
11
7.3145504724409447
21
-1.0324858267716535
0
LINE
8
BLACK
6
CONTINUOUS
10
7.3145504724409447
20
-1.0324858267716535
11
7.3156148818897639
21
-1.0320449212598426
0
LINE
8
BLACK
6
CONTINUOUS
10
7.3156148818897639
20
-1.0320449212598426
11
7.3161909448818898
21
-1.031988188976378
0
LINE
8
BLACK
6
CONTINUOUS
10
7.3161909448818898
20
-1.031988188976378
11
7.8713090551181102
21
-1.031988188976378
0
LINE
8
BLACK
6
CONTINUOUS
10
7.8713090551181102
20
-1.031988188976378
11
7.8718851181102361
21
-1.0320449212598426
0
LINE
8
BLACK
6
CONTINUOUS
10
7.3191437007874018
20
-1.0378937007874016
11
7.3191437007874018
21
-1.5871062992125984
0
LINE
8
BLACK
6
CONTINUOUS
10
7.3191437007874018
20
-1.5871062992125984
11
7.8683562992125982
21
-1.5871062992125984
0
LINE
8
BLACK
6
CONTINUOUS
10
7.8683562992125982
20
-1.5871062992125984
11
7.8683562992125982
21
-1.0378937007874016
0
LINE
8
BLACK
6
CONTINUOUS
10
7.8683562992125982
20
-1.0378937007874016
11
7.3191437007874018
21
-1.0378937007874016
0
LINE
8
BLACK
6
CONTINUOUS
10
8.6218851181102352
20
-1.0320449212598426
11
8.6229495275590544
21
-1.0324858267716535
0
LINE
8
BLACK
6
CONTINUOUS
10
8.6229495275590544
20
-1.0324858267716535
11
8.6237641732283468
21
-1.0333004724409449
0
LINE
8
BLACK
6
CONTINUOUS
10
8.6237641732283468
20
-1.0333004724409449
11
8.6242050787401574
21
-1.0343648818897637
0
LINE
8
BLACK
6
CONTINUOUS
10
8.6242050787401574
20
-1.0343648818897637
11
8.6242618110236222
21
-1.0349409448818898
0
LINE
8
BLACK
6
CONTINUOUS
10
8.6242618110236222
20
-1.0349409448818898
11
8.6242618110236222
21
-1.5900590551181102
0
LINE
8
BLACK
6
CONTINUOUS
10
8.6242618110236222
20
-1.5900590551181102
11
8.6242050787401574
21
-1.5906351181102363
0
LINE
8
BLACK
6
CONTINUOUS
10
8.6242050787401574
20
-1.5906351181102363
11
8.6237641732283468
21
-1.5916995275590551
0
LINE
8
BLACK
6
CONTINUOUS
10
8.6237641732283468
20
-1.5916995275590551
11
8.6229495275590544
21
-1.5925141732283463
0
LINE
8
BLACK
6
CONTINUOUS
10
8.6229495275590544
20
-1.5925141732283463
11
8.6218851181102352
21
-1.5929550787401574
0
LINE
8
BLACK
6
CONTINUOUS
10
8.6218851181102352
20
-1.5929550787401574
11
8.6213090551181093
21
-1.593011811023622
0
LINE
8
BLACK
6
CONTINUOUS
10
8.6213090551181093
20
-1.593011811023622
11
8.0661909448818889
21
-1.593011811023622
0
LINE
8
BLACK
6
CONTINUOUS
10
8.0661909448818889
20
-1.593011811023622
11
8.0656148818897631
21
-1.5929550787401574
0
LINE
8
BLACK
6
CONTINUOUS
10
8.0656148818897631
20
-1.5929550787401574
11
8.0645504724409456
21
-1.5925141732283463
0
LINE
8
BLACK
6
CONTINUOUS
10
8.0645504724409456
20
-1.5925141732283463
11
8.0637358267716532
21
-1.5916995275590551
0
LINE
8
BLACK
6
CONTINUOUS
10
8.0637358267716532
20
-1.5916995275590551
11
8.0632949212598426
21
-1.5906351181102363
0
LINE
8
BLACK
6
CONTINUOUS
10
8.0632949212598426
20
-1.5906351181102363
11
8.0632381889763778
21
-1.5900590551181102
0
LINE
8
BLACK
6
CONTINUOUS
10
8.0632381889763778
20
-1.5900590551181102
11
8.0632381889763778
21
-1.0349409448818898
0
LINE
8
BLACK
6
CONTINUOUS
10
8.0632381889763778
20
-1.0349409448818898
11
8.0632949212598426
21
-1.0343648818897637
0
LINE
8
BLACK
6
CONTINUOUS
10
8.0632949212598426
20
-1.0343648818897637
11
8.0637358267716532
21
-1.0333004724409449
0
LINE
8
BLACK
6
CONTINUOUS
10
8.0637358267716532
20
-1.0333004724409449
11
8.0645504724409456
21
-1.0324858267716535
0
LINE
8
BLACK
6
CONTINUOUS
10
8.0645504724409456
20
-1.0324858267716535
11
8.0656148818897631
21
-1.0320449212598426
0
LINE
8
BLACK
6
CONTINUOUS
10
8.0656148818897631
20
-1.0320449212598426
11
8.0661909448818889
21
-1.031988188976378
0
LINE
8
BLACK
6
CONTINUOUS
10
8.0661909448818889
20
-1.031988188976378
11
8.6213090551181093
21
-1.031988188976378
0
LINE
8
BLACK
6
CONTINUOUS
10
8.6213090551181093
20
-1.031988188976378
11
8.6218851181102352
21
-1.0320449212598426
0
LINE
8
BLACK
6
CONTINUOUS
10
8.0691437007874018
20
-1.0378937007874016
11
8.0691437007874018
21
-1.5871062992125984
0
LINE
8
BLACK
6
CONTINUOUS
10
8.0691437007874018
20
-1.5871062992125984
11
8.6183562992125982
21
-1.5871062992125984
0
LINE
8
BLACK
6
CONTINUOUS
10
8.6183562992125982
20
-1.5871062992125984
11
8.6183562992125982
21
-1.0378937007874016
0
LINE
8
BLACK
6
CONTINUOUS
10
8.6183562992125982
20
-1.0378937007874016
11
8.0691437007874018
21
-1.0378937007874016
0
LINE
8
BLACK
6
CONTINUOUS
10
8.7191266535433076
20
-0.9365906692913386
11
8.7196593307086605
21
-0.9371233464566929
0
LINE
8
BLACK
6
CONTINUOUS
10
8.7196593307086605
20
-0.9371233464566929
11
8.7197342519685037
21
-0.9375
0
LINE
8
BLACK
6
CONTINUOUS
10
8.7197342519685037
20
-0.9375
11
8.7197342519685037
21
-1.6865157480314961
0
LINE
8
BLACK
6
CONTINUOUS
10
8.7197342519685037
20
-1.6865157480314961
11
9.46875
21
-1.6865157480314961
0
LINE
8
BLACK
6
CONTINUOUS
10
9.46875
20
-1.6865157480314961
11
9.4691266535433076
21
-1.6865906692913386
0
LINE
8
BLACK
6
CONTINUOUS
10
9.4691266535433076
20
-1.6865906692913386
11
9.4696593307086605
21
-1.6871233464566928
0
LINE
8
BLACK
6
CONTINUOUS
10
9.4696593307086605
20
-1.6871233464566928
11
9.4697342519685037
21
-1.6875
0
LINE
8
BLACK
6
CONTINUOUS
10
9.4697342519685037
20
-1.6875
11
9.4697342519685037
21
-4.6875
0
LINE
8
BLACK
6
CONTINUOUS
10
9.4697342519685037
20
-4.6875
11
9.4696593307086605
21
-4.6878766535433067
0
LINE
8
BLACK
6
CONTINUOUS
10
9.4696593307086605
20
-4.6878766535433067
11
9.4691266535433076
21
-4.6884093307086614
0
LINE
8
BLACK
6
CONTINUOUS
10
9.4691266535433076
20
-4.6884093307086614
11
9.46875
21
-4.6884842519685037
0
LINE
8
BLACK
6
CONTINUOUS
10
9.46875
20
-4.6884842519685037
11
7.21875
21
-4.6884842519685037
0
LINE
8
BLACK
6
CONTINUOUS
10
7.21875
20
-4.6884842519685037
11
7.2183733464566924
21
-4.6884093307086614
0
LINE
8
BLACK
6
CONTINUOUS
10
7.2183733464566924
20
-4.6884093307086614
11
7.2178406692913386
21
-4.6878766535433067
0
LINE
8
BLACK
6
CONTINUOUS
10
7.2178406692913386
20
-4.6878766535433067
11
7.2177657480314963
21
-4.6875
0
LINE
8
BLACK
6
CONTINUOUS
10
7.2177657480314963
20
-4.6875
11
7.2177657480314963
21
-3.9384842519685037
0
LINE
8
BLACK
6
CONTINUOUS
10
7.2177657480314963
20
-3.9384842519685037
11
4.9697342519685037
21
-3.9384842519685037
0
LINE
8
BLACK
6
CONTINUOUS
10
4.9697342519685037
20
-3.9384842519685037
11
4.9697342519685037
21
-4.6875
0
LINE
8
BLACK
6
CONTINUOUS
10
4.9697342519685037
20
-4.6875
11
4.9696593307086614
21
-4.6878766535433067
0
LINE
8
BLACK
6
CONTINUOUS
10
4.9696593307086614
20
-4.6878766535433067
11
4.9691266535433067
21
-4.6884093307086614
0
LINE
8
BLACK
6
CONTINUOUS
10
4.9691266535433067
20
-4.6884093307086614
11
4.96875
21
-4.6884842519685037
0
LINE
8
BLACK
6
CONTINUOUS
10
4.96875
20
-4.6884842519685037
11
4.21875
21
-4.6884842519685037
0
LINE
8
BLACK
6
CONTINUOUS
10
4.21875
20
-4.6884842519685037
11
4.2183733464566924
21
-4.6884093307086614
0
LINE
8
BLACK
6
CONTINUOUS
10
4.2183733464566924
20
-4.6884093307086614
11
4.2178406692913386
21
-4.6878766535433067
0
LINE
8
BLACK
6
CONTINUOUS
10
4.2178406692913386
20
-4.6878766535433067
11
4.2177657480314963
21
-4.6875
0
LINE
8
BLACK
6
CONTINUOUS
10
4.2177657480314963
20
-4.6875
11
4.2177657480314963
21
-0.9375
0
LINE
8
BLACK
6
CONTINUOUS
10
4.2177657480314963
20
-0.9375
11
4.2178406692913386
21
-0.9371233464566929
0
LINE
8
BLACK
6
CONTINUOUS
10
4.2178406692913386
20
-0.9371233464566929
11
4.2183733464566924
21
-0.9365906692913386
0
LINE
8
BLACK
6
CONTINUOUS
10
4.2183733464566924
20
-0.9365906692913386
11
4.21875
21
-0.9365157480314961
0
LINE
8
BLACK
6
CONTINUOUS
10
4.21875
20
-0.9365157480314961
11
8.71875
21
-0.9365157480314961
0
LINE
8
BLACK
6
CONTINUOUS
10
8.71875
20
-0.9365157480314961
11
8.7191266535433076
21
-0.9365906692913386
0
LINE
8
BLACK
6
CONTINUOUS
10
4.2197342519685037
20
-0.9384842519685039
11
4.2197342519685037
21
-4.6865157480314963
0
LINE
8
BLACK
6
CONTINUOUS
10
4.2197342519685037
20
-4.6865157480314963
11
4.9677657480314963
21
-4.6865157480314963
0
LINE
8
BLACK
6
CONTINUOUS
10
4.9677657480314963
20
-4.6865157480314963
11
4.9677657480314963
21
-3.9375
0
LINE
8
BLACK
6
CONTINUOUS
10
4.9677657480314963
20
-3.9375
11
4.9678406692913386
21
-3.9371233464566928
0
LINE
8
BLACK
6
CONTINUOUS
10
4.9678406692913386
20
-3.9371233464566928
11
4.9683733464566924
21
-3.9365906692913386
0
LINE
8
BLACK
6
CONTINUOUS
10
4.9683733464566924
20
-3.9365906692913386
11
4.96875
21
-3.9365157480314958
0
LINE
8
BLACK
6
CONTINUOUS
10
4.96875
20
-3.9365157480314958
11
7.21875
21
-3.9365157480314958
0
LINE
8
BLACK
6
CONTINUOUS
10
7.21875
20
-3.9365157480314958
11
7.2191266535433067
21
-3.9365906692913386
0
LINE
8
BLACK
6
CONTINUOUS
10
7.2191266535433067
20
-3.9365906692913386
11
7.2196593307086614
21
-3.9371233464566928
0
LINE
8
BLACK
6
CONTINUOUS
10
7.2196593307086614
20
-3.9371233464566928
11
7.2197342519685037
21
-3.9375
0
LINE
8
BLACK
6
CONTINUOUS
10
7.2197342519685037
20
-3.9375
11
7.2197342519685037
21
-4.6865157480314963
0
LINE
8
BLACK
6
CONTINUOUS
10
7.2197342519685037
20
-4.6865157480314963
11
9.4677657480314963
21
-4.6865157480314963
0
LINE
8
BLACK
6
CONTINUOUS
10
9.4677657480314963
20
-4.6865157480314963
11
9.4677657480314963
21
-1.6884842519685039
0
LINE
8
BLACK
6
CONTINUOUS
10
9.4677657480314963
20
-1.6884842519685039
11
8.71875
21
-1.6884842519685039
0
LINE
8
BLACK
6
CONTINUOUS
10
8.71875
20
-1.6884842519685039
11
8.7183733464566924
21
-1.6884093307086614
0
LINE
8
BLACK
6
CONTINUOUS
10
8.7183733464566924
20
-1.6884093307086614
11
8.7178406692913377
21
-1.687876653543307
0
LINE
8
BLACK
6
CONTINUOUS
10
8.7178406692913377
20
-1.687876653543307
11
8.7177657480314963
21
-1.6875
0
LINE
8
BLACK
6
CONTINUOUS
10
8.7177657480314963
20
-1.6875
11
8.7177657480314963
21
-0.9384842519685039
0
LINE
8
BLACK
6
CONTINUOUS
10
8.7177657480314963
20
-0.9384842519685039
11
4.2197342519685037
21
-0.9384842519685039
  0
ENDSEC
  0
EOF
