M48
; DRILL file {KiCad 8.0.8} date 2025-04-09T22:20:47+0900
; FORMAT={-:-/ absolute / metric / decimal}
; #@! TF.CreationDate,2025-04-09T22:20:47+09:00
; #@! TF.GenerationSoftware,Kicad,Pcbnew,8.0.8
; #@! TF.FileFunction,Plated,1,2,PTH
FMAT,2
METRIC
; #@! TA.AperFunction,Plated,PTH,ViaDrill
T1C0.300
; #@! TA.AperFunction,Plated,PTH,ComponentDrill
T2C0.500
; #@! TA.AperFunction,Plated,PTH,ComponentDrill
T3C0.813
; #@! TA.AperFunction,Plated,PTH,ComponentDrill
T4C1.000
%
G90
G05
T1
X98.806Y-55.806
X98.806Y-74.88
X99.082Y-38.059
X99.564Y-95.194
X99.564Y-115.582
X102.507Y-42.769
X103.457Y-63.088
X104.627Y-52.879
X105.133Y-69.804
X107.904Y-74.88
X108.325Y-36.889
X108.347Y-115.582
X108.393Y-94.858
X109.041Y-55.806
X115.192Y-80.632
X115.491Y-34.267
X117.856Y-77.719
X119.84Y-37.409
X120.547Y-71.51
X120.589Y-94.075
X120.788Y-95.194
X123.108Y-57.332
X126.05Y-95.194
X127.482Y-75.769
X127.859Y-94.075
X128.15Y-56.05
X129.756Y-39.327
X129.756Y-71.51
X134.909Y-71.779
X135.174Y-89.075
X136.906Y-57.332
X136.906Y-91.868
X137.822Y-36.944
X137.822Y-77.719
X146.447Y-77.689
X146.651Y-56.578
X148.806Y-71.779
X148.806Y-89.118
X150.234Y-39.93
X152.886Y-89.719
X155.48Y-38.725
X155.956Y-57.332
X155.956Y-77.719
X158.422Y-95.194
X161.947Y-91.61
X164.308Y-57.332
X164.308Y-95.194
X165.497Y-77.689
X166.007Y-37.222
X167.251Y-89.719
X167.856Y-51.024
X169.658Y-77.719
X169.78Y-90.369
X170.144Y-108.804
X170.868Y-89.666
X171.48Y-89.032
X172.0Y-113.0
X172.141Y-69.804
X172.5Y-107.5
X172.5Y-111.0
X173.339Y-115.942
X175.006Y-38.725
X176.08Y-57.332
X176.08Y-76.941
X176.213Y-108.202
X178.509Y-91.498
X179.023Y-95.194
X184.525Y-37.222
X184.547Y-75.38
X184.547Y-115.807
X184.909Y-56.42
X184.909Y-94.542
X185.51Y-77.719
X186.906Y-51.507
X186.906Y-90.267
X186.906Y-109.757
X186.906Y-127.644
X187.851Y-77.719
X189.459Y-78.531
X190.912Y-74.807
X190.912Y-90.876
X190.912Y-106.84
X190.912Y-115.046
X191.825Y-52.285
X191.825Y-112.415
X193.737Y-38.725
X194.056Y-55.81
X194.056Y-76.941
X194.056Y-95.194
X194.056Y-115.582
X198.904Y-80.069
X199.258Y-91.61
X200.495Y-90.999
X202.435Y-54.769
X202.566Y-95.194
X203.8Y-113.75
X204.071Y-75.38
X204.107Y-37.222
X204.56Y-77.719
X205.956Y-46.495
X205.956Y-89.369
X207.661Y-89.988
X207.944Y-57.95
X207.944Y-71.578
X208.704Y-45.619
X208.9Y-109.137
X209.212Y-44.702
X209.515Y-108.391
X210.109Y-94.73
X210.154Y-39.174
X210.481Y-42.769
X210.481Y-88.591
X210.722Y-91.61
X211.14Y-62.779
X212.5Y-50.5
X212.967Y-116.973
X213.106Y-94.128
X214.657Y-101.375
X215.293Y-91.615
X216.186Y-58.586
X217.884Y-79.772
X218.719Y-54.419
X220.446Y-75.278
X220.542Y-39.477
X220.542Y-44.702
X221.769Y-34.032
X222.145Y-115.529
X222.319Y-58.139
X222.647Y-77.689
X223.0Y-48.0
X223.111Y-94.128
X223.166Y-52.285
X224.598Y-75.278
X225.006Y-89.988
X225.006Y-94.73
X226.033Y-109.757
X227.0Y-52.5
X227.528Y-89.369
X228.0Y-96.5
X228.938Y-51.223
X229.78Y-91.615
X231.497Y-35.745
T3
X100.012Y-34.874
X100.012Y-42.494
X100.012Y-53.924
X100.012Y-61.544
X102.74Y-35.719
X102.762Y-54.769
X102.762Y-73.819
X102.762Y-92.869
X102.762Y-111.919
X110.36Y-35.719
X110.382Y-54.769
X110.382Y-73.819
X110.382Y-92.869
X110.382Y-111.919
X119.062Y-53.924
X119.062Y-61.544
X119.062Y-72.974
X119.062Y-80.594
X119.062Y-92.024
X119.062Y-99.644
X121.79Y-35.719
X121.812Y-54.769
X121.812Y-73.819
X121.812Y-92.869
X129.41Y-35.719
X129.432Y-54.769
X129.432Y-73.819
X129.432Y-92.869
X140.84Y-54.769
X140.862Y-35.719
X140.862Y-73.819
X140.862Y-92.869
X148.46Y-54.769
X148.482Y-35.719
X148.482Y-73.819
X148.482Y-92.869
X159.89Y-35.719
X159.912Y-54.769
X159.912Y-73.819
X159.912Y-92.869
X167.51Y-35.719
X167.532Y-54.769
X167.532Y-73.819
X167.532Y-92.869
X176.213Y-92.024
X176.213Y-99.644
X176.213Y-111.074
X176.213Y-118.694
X178.94Y-35.719
X178.94Y-54.769
X178.962Y-73.819
X178.962Y-92.869
X178.962Y-111.919
X186.56Y-35.719
X186.56Y-54.769
X186.582Y-73.819
X186.582Y-92.869
X186.582Y-111.919
X195.869Y-72.974
X195.869Y-80.594
X197.99Y-35.719
X198.012Y-54.769
X198.012Y-73.819
X198.012Y-92.869
X198.012Y-111.919
X205.61Y-35.719
X205.632Y-54.769
X205.632Y-73.819
X205.632Y-92.869
X205.632Y-111.919
X209.55Y-114.646
X209.55Y-122.266
X213.836Y-33.205
X213.836Y-35.745
X213.836Y-38.285
X213.836Y-40.825
X213.836Y-43.365
X213.836Y-45.905
X213.836Y-48.445
X214.312Y-53.924
X214.312Y-61.544
X214.312Y-111.074
X214.312Y-118.694
X216.734Y-57.15
X217.04Y-111.919
X217.062Y-73.819
X217.062Y-92.869
X224.354Y-57.15
X224.66Y-111.919
X224.682Y-73.819
X224.682Y-92.869
X228.6Y-114.646
X228.6Y-122.266
X229.076Y-33.205
X229.076Y-35.745
X229.076Y-38.285
X229.076Y-40.825
X229.076Y-43.365
X229.076Y-45.905
X229.076Y-48.445
T4
X166.688Y-111.442
X166.688Y-113.983
X166.688Y-116.522
X166.688Y-119.062
X166.688Y-121.602
X166.688Y-124.142
X166.688Y-126.682
X217.011Y-38.603
X217.011Y-40.508
X225.292Y-50.137
X227.171Y-50.137
T2
G00X230.731Y-54.512
M15
G01X230.731Y-54.212
M16
G05
G00X230.731Y-57.012
M15
G01X230.731Y-56.712
M16
G05
G00X230.731Y-59.512
M15
G01X230.731Y-59.212
M16
G05
M30
