M48
; DRILL file {KiCad 8.0.8} date 2025-04-09T22:20:47+0900
; FORMAT={-:-/ absolute / metric / decimal}
; #@! TF.CreationDate,2025-04-09T22:20:47+09:00
; #@! TF.GenerationSoftware,Kicad,Pcbnew,8.0.8
; #@! TF.FileFunction,NonPlated,1,2,NPTH
FMAT,2
METRIC
; #@! TA.AperFunction,NonPlated,NPTH,ComponentDrill
T1C1.000
; #@! TA.AperFunction,NonPlated,NPTH,ComponentDrill
T2C2.200
; #@! TA.AperFunction,NonPlated,NPTH,ComponentDrill
T3C3.000
; #@! TA.AperFunction,NonPlated,NPTH,ComponentDrill
T4C5.000
%
G90
G05
T1
X112.156Y-37.312
X112.156Y-56.362
X112.156Y-75.412
X112.156Y-94.462
X112.156Y-113.512
X131.206Y-37.312
X131.206Y-56.362
X131.206Y-75.412
X131.206Y-94.462
X150.256Y-37.312
X150.256Y-56.362
X150.256Y-75.412
X150.256Y-94.462
X169.306Y-37.312
X169.306Y-56.362
X169.306Y-75.412
X169.306Y-94.462
X188.356Y-37.312
X188.356Y-56.362
X188.356Y-75.412
X188.356Y-94.462
X188.356Y-113.512
X207.406Y-37.312
X207.406Y-56.362
X207.406Y-75.412
X207.406Y-94.462
X207.406Y-113.512
X226.456Y-56.362
X226.456Y-75.412
X226.456Y-94.462
X226.456Y-113.512
T2
X111.919Y-40.481
X111.919Y-78.581
X111.919Y-117.872
X158.353Y-41.672
X158.353Y-41.672
X197.344Y-41.672
X197.644Y-116.681
X215.503Y-77.391
T3
X102.156Y-46.562
X102.156Y-65.612
X102.156Y-84.662
X102.156Y-103.712
X102.156Y-122.762
X107.156Y-48.762
X107.156Y-67.812
X107.156Y-86.862
X107.156Y-105.912
X107.156Y-124.962
X121.206Y-46.562
X121.206Y-65.612
X121.206Y-84.662
X121.206Y-103.712
X126.206Y-48.762
X126.206Y-67.812
X126.206Y-86.862
X126.206Y-105.912
X140.256Y-46.562
X140.256Y-65.612
X140.256Y-84.662
X140.256Y-103.712
X145.256Y-48.762
X145.256Y-67.812
X145.256Y-86.862
X145.256Y-105.912
X159.306Y-46.562
X159.306Y-65.612
X159.306Y-84.662
X159.306Y-103.712
X164.306Y-48.762
X164.306Y-67.812
X164.306Y-86.862
X164.306Y-105.912
X178.356Y-46.562
X178.356Y-65.612
X178.356Y-84.662
X178.356Y-103.712
X178.356Y-122.762
X183.356Y-48.762
X183.356Y-67.812
X183.356Y-86.862
X183.356Y-105.912
X183.356Y-124.962
X197.406Y-46.562
X197.406Y-65.612
X197.406Y-84.662
X197.406Y-103.712
X197.406Y-122.762
X202.406Y-48.762
X202.406Y-67.812
X202.406Y-86.862
X202.406Y-105.912
X202.406Y-124.962
X216.456Y-65.612
X216.456Y-84.662
X216.456Y-103.712
X216.456Y-122.762
X221.456Y-67.812
X221.456Y-86.862
X221.456Y-105.912
X221.456Y-124.962
T4
X107.156Y-42.862
X107.156Y-61.912
X107.156Y-80.962
X107.156Y-100.012
X107.156Y-119.062
X126.206Y-42.862
X126.206Y-61.912
X126.206Y-80.962
X126.206Y-100.012
X145.256Y-42.862
X145.256Y-61.912
X145.256Y-80.962
X145.256Y-100.012
X164.306Y-42.862
X164.306Y-61.912
X164.306Y-80.962
X164.306Y-100.012
X183.356Y-42.862
X183.356Y-61.912
X183.356Y-80.962
X183.356Y-100.012
X183.356Y-119.062
X202.406Y-42.862
X202.406Y-61.912
X202.406Y-80.962
X202.406Y-100.012
X202.406Y-119.062
X221.456Y-61.912
X221.456Y-80.962
X221.456Y-100.012
X221.456Y-119.062
M30
